0
SECTION
2
HEADER
9
$INSUNITS
70
4
9
$ACADVER
1
AC1014
9
$HANDSEED
5
FFFF
0
ENDSEC
0
SECTION
2
TABLES
0
TABLE
2
VPORT
5
8
100
AcDbSymbolTable
0
ENDTAB
0
TABLE
2
LTYPE
5
5
100
AcDbSymbolTable
0
LTYPE
5
14
100
AcDbSymbolTableRecord
100
AcDbLinetypeTableRecord
2
BYBLOCK
70
0
0
LTYPE
5
15
100
AcDbSymbolTableRecord
100
AcDbLinetypeTableRecord
2
BYLAYER
70
0
0
ENDTAB
0
TABLE
2
LAYER
5
2
100
AcDbSymbolTable
70
2
0
LAYER
5
50
100
AcDbSymbolTableRecord
100
AcDbLayerTableRecord
2
0
70
0
6
CONTINUOUS
0
ENDTAB
0
TABLE
2
STYLE
5
3
100
AcDbSymbolTable
70
1
0
STYLE
5
11
100
AcDbSymbolTableRecord
100
AcDbTextStyleTableRecord
2
STANDARD
70
0
0
ENDTAB
0
TABLE
2
VIEW
5
6
100
AcDbSymbolTable
70
0
0
ENDTAB
0
TABLE
2
UCS
5
7
100
AcDbSymbolTable
70
0
0
ENDTAB
0
TABLE
2
APPID
5
9
100
AcDbSymbolTable
70
2
0
APPID
5
12
100
AcDbSymbolTableRecord
100
AcDbRegAppTableRecord
2
ACAD
70
0
0
ENDTAB
0
TABLE
2
DIMSTYLE
5
A
100
AcDbSymbolTable
70
1
0
ENDTAB
0
TABLE
2
BLOCK_RECORD
5
1
100
AcDbSymbolTable
70
1
0
BLOCK_RECORD
5
1F
100
AcDbSymbolTableRecord
100
AcDbBlockTableRecord
2
*MODEL_SPACE
0
BLOCK_RECORD
5
1B
100
AcDbSymbolTableRecord
100
AcDbBlockTableRecord
2
*PAPER_SPACE
0
ENDTAB
0
ENDSEC
0
SECTION
2
BLOCKS
0
BLOCK
5
20
100
AcDbEntity
100
AcDbBlockBegin
2
*MODEL_SPACE
0
ENDBLK
5
21
100
AcDbEntity
100
AcDbBlockEnd
0
BLOCK
5
1C
100
AcDbEntity
100
AcDbBlockBegin
2
*PAPER_SPACE
0
ENDBLK
5
1D
100
AcDbEntity
100
AcDbBlockEnd
0
ENDSEC
0
SECTION
2
ENTITIES
0
CIRCLE
5
100
100
AcDbEntity
8
0
100
AcDbCircle
10
139.69217577251834
20
-26.599251743997687
30
0
40
1.4500000000000313
210
0
220
0
230
1
0
CIRCLE
5
101
100
AcDbEntity
8
0
100
AcDbCircle
10
139.69217577251834
20
-32.349251743997705
30
0
40
1.4500000000000313
210
0
220
0
230
1
0
CIRCLE
5
102
100
AcDbEntity
8
0
100
AcDbCircle
10
139.69217577251834
20
-38.099251743997684
30
0
40
1.4500000000000313
210
0
220
0
230
1
0
CIRCLE
5
103
100
AcDbEntity
8
0
100
AcDbCircle
10
141.59644628787669
20
35.846499350622068
30
0
40
1.5250000000000341
210
0
220
0
230
1
0
CIRCLE
5
104
100
AcDbEntity
8
0
100
AcDbCircle
10
-134.33182422748132
20
-46.486177157883766
30
0
40
1.5249999999999986
210
0
220
0
230
1
0
CIRCLE
5
105
100
AcDbEntity
8
0
100
AcDbCircle
10
134.38220916033487
20
-46.340333552222923
30
0
40
1.5250000000000341
210
0
220
0
230
1
0
CIRCLE
5
106
100
AcDbEntity
8
0
100
AcDbCircle
10
-3.6268242274820039
20
48.446748256002216
30
0
40
1.5249999999999986
210
0
220
0
230
1
0
CIRCLE
5
107
100
AcDbEntity
8
0
100
AcDbCircle
10
-88.638092896188112
20
-46.465287235817428
30
0
40
1.5249999999999986
210
0
220
0
230
1
0
CIRCLE
5
108
100
AcDbEntity
8
0
100
AcDbCircle
10
87.088479834991901
20
-46.45954364460917
30
0
40
1.5250000000000341
210
0
220
0
230
1
0
CIRCLE
5
109
100
AcDbEntity
8
0
100
AcDbCircle
10
-141.63527031307885
20
35.692776322963987
30
0
40
1.5249999999999986
210
0
220
0
230
1
0
ARC
5
110
100
AcDbEntity
8
0
100
AcDbCircle
10
-14.835994674503006
20
28.725124259555869
30
0
40
0.19999999999996884
210
-0
220
0
230
1
100
AcDbArc
50
-50.454798965915892
51
8.0061345642397566
0
LINE
5
111
100
AcDbEntity
8
0
100
AcDbLine
10
-16.532841817604123
20
42.225411745983685
30
0
11
-14.637944042096613
21
28.752980084860774
31
0
0
ARC
5
112
100
AcDbEntity
8
0
100
AcDbCircle
10
-16.730892450010515
20
42.197555920678774
30
0
40
0.19999999999997378
210
0
220
-0
230
1
100
AcDbArc
50
8.0061345642416288
51
98.006134564256016
0
LINE
5
113
100
AcDbEntity
8
0
100
AcDbLine
10
-49.09058648523974
20
37.848132879209182
30
0
11
-16.758748275315476
21
42.395606553085159
31
0
0
ARC
5
114
100
AcDbEntity
8
0
100
AcDbCircle
10
-49.06273065993485
20
37.650082246802683
30
0
40
0.20000000000007684
210
0
220
0
230
1
100
AcDbArc
50
98.006134564231346
51
188.00613456421894
0
LINE
5
115
100
AcDbEntity
8
0
100
AcDbLine
10
-47.366135550800799
20
24.15158668310476
30
0
11
-49.260781292341349
21
37.622226421497835
31
0
0
ARC
5
116
100
AcDbEntity
8
0
100
AcDbCircle
10
-47.168084918394406
20
24.179442508409686
30
0
40
0.19999999999997628
210
0
220
0
230
1
100
AcDbArc
50
188.00613456424563
51
247.71572555672779
0
ARC
5
117
100
AcDbEntity
8
0
100
AcDbCircle
10
-47.623127569967352
20
23.069065912272521
30
0
40
0.99999999999987432
210
0
220
-0
230
1
100
AcDbArc
50
8.002959068654846
51
67.715725556726326
0
LINE
5
118
100
AcDbEntity
8
0
100
AcDbLine
10
-46.331614599425528
20
21.06557310739294
30
0
11
-46.63286669020966
21
23.208290155927394
31
0
0
ARC
5
119
100
AcDbEntity
8
0
100
AcDbCircle
10
-45.34135371966773
20
21.204797351047876
30
0
40
0.99999999999998923
210
0
220
0
230
1
100
AcDbArc
50
188.00295906865759
51
278.00295906865716
0
LINE
5
120
100
AcDbEntity
8
0
100
AcDbLine
10
-39.260564197465939
20
21.049881933219709
30
0
11
-45.2021294760128
21
20.214536471290078
31
0
0
ARC
5
121
100
AcDbEntity
8
0
100
AcDbCircle
10
-39.399788441120869
20
22.040142812977521
30
0
40
1.0000000000000011
210
-0
220
0
230
1
100
AcDbArc
50
-81.997040931342937
51
8.0029590686574501
0
LINE
5
122
100
AcDbEntity
8
0
100
AcDbLine
10
-38.687976048673001
20
24.159888816148104
30
0
11
-38.40952756136307
21
22.179367056632458
31
0
0
ARC
5
123
100
AcDbEntity
8
0
100
AcDbCircle
10
-37.697715168915167
20
24.299113059803034
30
0
40
1.0000000000000011
210
0
220
0
230
1
100
AcDbArc
50
98.002959068657091
51
188.00295906865665
0
LINE
5
124
100
AcDbEntity
8
0
100
AcDbLine
10
-24.089119930355594
20
27.22222800705071
30
0
11
-37.836939412570096
21
25.289373939560846
31
0
0
ARC
5
125
100
AcDbEntity
8
0
100
AcDbCircle
10
-23.949895686700664
20
26.231967127292911
30
0
40
0.99999999999995215
210
0
220
-0
230
1
100
AcDbArc
50
8.0029590686572671
51
98.00295906865729
0
LINE
5
126
100
AcDbEntity
8
0
100
AcDbLine
10
-22.681186319633007
20
24.390669611432191
30
0
11
-22.959634806942901
21
26.371191370947837
31
0
0
ARC
5
127
100
AcDbEntity
8
0
100
AcDbCircle
10
-21.690925439875208
20
24.529893855087135
30
0
40
0.99999999999998979
210
0
220
0
230
1
100
AcDbArc
50
188.00295906865793
51
278.00295906865716
0
LINE
5
128
100
AcDbEntity
8
0
100
AcDbLine
10
-15.610135917673418
20
24.374978437258964
30
0
11
-21.551701196220279
21
23.539632975329337
31
0
0
ARC
5
129
100
AcDbEntity
8
0
100
AcDbCircle
10
-15.749360161328347
20
25.365239317016773
30
0
40
1.0000000000000011
210
-0
220
0
230
1
100
AcDbArc
50
-81.99704093134288
51
8.0029590686579084
0
LINE
5
130
100
AcDbEntity
8
0
100
AcDbLine
10
-15.062231439608418
20
27.660552971690176
30
0
11
-14.759099281570549
21
25.504463560671716
31
0
0
ARC
5
131
100
AcDbEntity
8
0
100
AcDbCircle
10
-14.07197055985062
20
27.799777215345124
30
0
40
0.99999999999999978
210
0
220
0
230
1
100
AcDbArc
50
129.54520103408808
51
188.00295906865807
0
ARC
5
132
100
AcDbEntity
8
0
100
AcDbCircle
10
41.943400884249264
20
37.317262818719129
30
0
40
0.19999999999995405
210
-0
220
0
230
1
100
AcDbArc
50
-7.9938654357704451
51
81.994029106728732
0
LINE
5
133
100
AcDbEntity
8
0
100
AcDbLine
10
42.141457477069011
20
37.289449403959068
30
0
11
40.250000930288188
21
23.820573239186338
31
0
0
ARC
5
134
100
AcDbEntity
8
0
100
AcDbCircle
10
40.051944337468477
20
23.848386653946289
30
0
40
0.19999999999991427
210
-0
220
0
230
1
100
AcDbArc
50
293.84988648389236
51
352.0061345642597
0
ARC
5
135
100
AcDbEntity
8
0
100
AcDbCircle
10
40.537154477645956
20
22.750857100873137
30
0
40
1.0000000000000875
210
0
220
0
230
1
100
AcDbArc
50
113.84988648391273
51
172.00317453079577
0
LINE
5
136
100
AcDbEntity
8
0
100
AcDbLine
10
39.546878699397432
20
22.889975334812558
30
0
11
39.243511267470197
21
20.730535761435664
31
0
0
ARC
5
137
100
AcDbEntity
8
0
100
AcDbCircle
10
38.253235489221744
20
20.869653995375032
30
0
40
1.000000000000002
210
0
220
0
230
1
100
AcDbArc
50
262.00317453079828
51
352.00317453079816
0
LINE
5
138
100
AcDbEntity
8
0
100
AcDbLine
10
38.11411725528238
20
19.879378217126572
30
0
11
32.172462585791592
21
20.714087620762736
31
0
0
ARC
5
139
100
AcDbEntity
8
0
100
AcDbCircle
10
32.311580819730956
20
21.704363399011189
30
0
40
0.99999999999999312
210
0
220
0
230
1
100
AcDbArc
50
172.0031745307983
51
262.00317453079828
0
LINE
5
140
100
AcDbEntity
8
0
100
AcDbLine
10
31.321305041482503
20
21.843481632950553
30
0
11
31.599541509361195
21
23.824033189447498
31
0
0
ARC
5
141
100
AcDbEntity
8
0
100
AcDbCircle
10
30.609265731112778
20
23.963151423386879
30
0
40
0.99999999999996048
210
-0
220
0
230
1
100
AcDbArc
50
-7.9968254692029594
51
82.003174530798233
0
LINE
5
142
100
AcDbEntity
8
0
100
AcDbLine
10
30.748383965052142
20
24.953427201635336
30
0
11
17.000653085632891
21
26.884768028734342
31
0
0
ARC
5
143
100
AcDbEntity
8
0
100
AcDbCircle
10
16.861534851693492
20
25.894492250485904
30
0
40
0.99999999999998068
210
0
220
-0
230
1
100
AcDbArc
50
82.003174530796159
51
172.00317453079816
0
LINE
5
144
100
AcDbEntity
8
0
100
AcDbLine
10
15.871259073445074
20
26.033610484425264
30
0
11
15.593022605566311
21
24.053058927928173
31
0
0
ARC
5
145
100
AcDbEntity
8
0
100
AcDbCircle
10
14.602746827317858
20
24.192177161867544
30
0
40
1.000000000000002
210
0
220
0
230
1
100
AcDbArc
50
262.00317453079828
51
352.00317453079799
0
LINE
5
146
100
AcDbEntity
8
0
100
AcDbLine
10
14.463628593378495
20
23.201901383619084
30
0
11
8.5221651804978293
21
24.036583918697609
31
0
0
ARC
5
147
100
AcDbEntity
8
0
100
AcDbCircle
10
8.6612834144371931
20
25.026859696946062
30
0
40
0.99999999999999201
210
0
220
0
230
1
100
AcDbArc
50
172.00317453079896
51
262.00317453079828
0
LINE
5
148
100
AcDbEntity
8
0
100
AcDbLine
10
7.6710076361887403
20
25.165977930885415
30
0
11
7.9715526958143101
21
27.305327205180809
31
0
0
ARC
5
149
100
AcDbEntity
8
0
100
AcDbCircle
10
6.9812769175658573
20
27.444445439120166
30
0
40
0.99999999999999201
210
-0
220
0
230
1
100
AcDbArc
50
-7.9968254692012799
51
52.042584082598204
0
ARC
5
150
100
AcDbEntity
8
0
100
AcDbCircle
10
7.719367673772588
20
28.390607177726224
30
0
40
0.19999999999995277
210
0
220
0
230
1
100
AcDbArc
50
172.00613456423363
51
232.04258408261148
0
LINE
5
151
100
AcDbEntity
8
0
100
AcDbLine
10
7.5213110809528416
20
28.418420592486271
30
0
11
9.413086858878188
21
41.889569970861409
31
0
0
ARC
5
152
100
AcDbEntity
8
0
100
AcDbCircle
10
9.6111434516979699
20
41.86175655610139
30
0
40
0.1999999999999843
210
0
220
-0
230
1
100
AcDbArc
50
82.006134564243041
51
172.00613456424492
0
LINE
5
153
100
AcDbEntity
8
0
100
AcDbLine
10
9.6389568664579883
20
42.059813148921172
30
0
11
23.30650979775033
21
40.140456095362239
31
0
0
LINE
5
154
100
AcDbEntity
8
0
100
AcDbLine
10
23.30650979775033
20
40.140456095362225
30
0
11
41.971256143803153
21
37.515313530697568
31
0
0
ARC
5
155
100
AcDbEntity
8
0
100
AcDbCircle
10
134.44337107845357
20
32.126187806710035
30
0
40
10.969999999997151
210
0
220
-0
230
1
100
AcDbArc
50
89.086163287355134
51
96.829966231246203
0
SPLINE
5
156
100
AcDbEntity
8
0
100
AcDbSpline
70
0
71
3
72
44
73
40
74
0
42
0.000000001
43
0.0000000001
44
0.0000000001
40
0.00054272897513227693
40
0.00054272897513227693
40
0.00054272897513227693
40
0.00054272897513227693
40
0.64246135683468841
40
0.64246135683468841
40
0.64246135683468841
40
1.0533817424255336
40
1.0533817424255336
40
1.0533817424255336
40
1.4202758804396911
40
1.4202758804396911
40
1.4202758804396911
40
1.8875789591493819
40
1.8875789591493819
40
1.8875789591493819
40
2.8267217594689384
40
2.8267217594689384
40
2.8267217594689384
40
4.156647077820951
40
4.156647077820951
40
4.156647077820951
40
4.647680166132667
40
4.647680166132667
40
4.647680166132667
40
5.9676860160265059
40
5.9676860160265059
40
5.9676860160265059
40
6.5428579857169771
40
6.5428579857169771
40
6.5428579857169771
40
6.8894070624633095
40
6.8894070624633095
40
6.8894070624633095
40
7.1953750547584256
40
7.1953750547584256
40
7.1953750547584256
40
7.5943805459250067
40
7.5943805459250067
40
7.5943805459250067
40
8.2032644501582297
40
8.2032644501582297
40
8.2032644501582297
40
8.2032644501582297
10
137.07056477725942
20
-51.451424206264377
30
0
10
139.26763571845711
20
-50.966676981066492
30
0
10
141.57877017866463
20
-50.212830656642772
30
0
10
143.60899645164187
20
-48.933518641948652
30
0
10
144.90811581158914
20
-48.114901018965625
30
0
10
146.08383051634883
20
-47.078466715486329
30
0
10
147.00868289506496
20
-45.772153533648996
30
0
10
147.83411922964882
20
-44.606261128061753
30
0
10
148.39072188230352
20
-43.321014814018277
30
0
10
148.73201158990483
20
-41.975410539441043
30
0
10
149.16659202852102
20
-40.261988532198465
30
0
10
149.25779573039671
20
-38.468956571528381
30
0
10
149.17065342227852
20
-36.627865476899288
30
0
10
148.99548002015484
20
-32.926905545608996
30
0
10
148.09495852209915
20
-28.82521797839815
30
0
10
147.21398435791841
20
-24.171944334915445
30
0
10
145.96642939824747
20
-17.582404200067387
30
0
10
144.88439895406435
20
-10.711986439113979
30
0
10
145.28552850743196
20
-1.8758645668195761
30
0
10
145.43363297912043
20
1.3865955303847688
30
0
10
145.76709586021963
20
4.5215301246671036
30
0
10
146.18769870659079
20
7.5144114858987976
30
0
10
147.31837244509757
20
15.55994038996352
30
0
10
149.09421922132259
20
22.548218938705364
30
0
10
149.52844226444063
20
28.34600153461032
30
0
10
149.71764028553144
20
30.872189426399128
30
0
10
149.65170968103189
20
33.134136073100066
30
0
10
149.1020013972296
20
35.157574873557699
30
0
10
148.7707370907043
20
36.376936252639737
30
0
10
148.24123439075422
20
37.563645002529896
30
0
10
147.42708320456799
20
38.621252529291084
30
0
10
146.70824727976154
20
39.555042588779699
30
0
10
145.8282355460112
20
40.30727129690721
30
0
10
144.8544027185946
20
40.897870742768049
30
0
10
143.58380749025179
20
41.668447392728979
30
0
10
142.20070007844086
20
42.146534355994135
30
0
10
140.85532690153121
20
42.462549649572367
30
0
10
138.80186270616724
20
42.944888751977359
30
0
10
136.63068115069592
20
43.094153322599297
30
0
10
134.61832923072762
20
43.094792533150425
30
0
0
ARC
5
157
100
AcDbEntity
8
0
100
AcDbCircle
10
133.72763729909445
20
-36.797901221124853
30
0
40
15.030000000010817
210
-0
220
0
230
1
100
AcDbArc
50
281.16873683694251
51
282.85103468658218
0
SPLINE
5
158
100
AcDbEntity
8
0
100
AcDbSpline
70
0
71
3
72
20
73
16
74
0
42
0.000000001
43
0.0000000001
44
0.0000000001
40
0
40
0
40
0
40
0
40
3.938633359216869
40
3.938633359216869
40
3.938633359216869
40
12.060997201123428
40
12.060997201123428
40
12.060997201123428
40
19.258841904367962
40
19.258841904367962
40
19.258841904367962
40
25.242889721455985
40
25.242889721455985
40
25.242889721455985
40
29.702972671887398
40
29.702972671887398
40
29.702972671887398
40
29.702972671887398
10
-136.77112276396255
20
-51.655229908288113
30
0
10
-123.77013641270395
20
-54.699732312576799
30
0
10
-111.11397512801263
20
-54.594689260256082
30
0
10
-99.711817956941957
20
-53.451927894152391
30
0
10
-76.195918068339807
20
-51.095087738498435
30
0
10
-52.726197517293656
20
-43.779080396578792
30
0
10
-26.365492639141017
20
-40.622344039453921
30
0
10
-3.0079176662395213
20
-37.825237267383571
30
0
10
15.71095898282497
20
-39.144173165252198
30
0
10
37.398770586529402
20
-42.889965901250029
30
0
10
55.430994904414987
20
-46.004386853352102
30
0
10
72.494429104892433
20
-50.260160963356604
30
0
10
90.538318428512383
20
-52.445308271504622
30
0
10
103.98725347354159
20
-54.073998388365034
30
0
10
120.1122581809507
20
-54.806247691125762
30
0
10
136.63893430509589
20
-51.543247936043855
30
0
0
ARC
5
159
100
AcDbEntity
8
0
100
AcDbCircle
10
-139.51518066566888
20
-63.373223389544407
30
0
40
12.034999999779043
210
0
220
-0
230
1
100
AcDbArc
50
76.820267167394334
51
77.472749365655858
0
SPLINE
5
160
100
AcDbEntity
8
0
100
AcDbSpline
70
0
71
3
72
44
73
40
74
0
42
0.000000001
43
0.0000000001
44
0.0000000001
40
0.0016985630095803206
40
0.0016985630095803206
40
0.0016985630095803206
40
0.0016985630095803206
40
0.64767109587064975
40
0.64767109587064975
40
0.64767109587064975
40
1.1183297484591057
40
1.1183297484591057
40
1.1183297484591057
40
1.5392291848282806
40
1.5392291848282806
40
1.5392291848282806
40
1.9838733744903625
40
1.9838733744903625
40
1.9838733744903625
40
2.6842893107569221
40
2.6842893107569221
40
2.6842893107569221
40
4.4026394906493405
40
4.4026394906493405
40
4.4026394906493405
40
7.4232852399423983
40
7.4232852399423983
40
7.4232852399423983
40
8.1693503696209966
40
8.1693503696209966
40
8.1693503696209966
40
9.6295477130328635
40
9.6295477130328635
40
9.6295477130328635
40
10.238034756020284
40
10.238034756020284
40
10.238034756020284
40
10.790713465587473
40
10.790713465587473
40
10.790713465587473
40
11.297083943873863
40
11.297083943873863
40
11.297083943873863
40
11.888036354805861
40
11.888036354805861
40
11.888036354805861
40
11.888036354805861
10
-134.64264619590099
20
42.947283137752876
30
0
10
-136.88146360277275
20
42.94385484014704
30
0
10
-139.34802383425966
20
42.759561186949739
30
0
10
-141.63284160085152
20
42.11567753620227
30
0
10
-143.29571018806001
20
41.647065153936794
30
0
10
-144.63469105903175
20
40.99235606833507
30
0
10
-145.70593466518281
20
40.190626532522757
30
0
10
-146.66536736821595
20
39.472577406041019
30
0
10
-147.47346269722246
20
38.583292409196297
30
0
10
-148.08816945704305
20
37.539300997843796
30
0
10
-148.73766843490091
20
36.436219986072167
30
0
10
-149.12456726409309
20
35.252856681174414
30
0
10
-149.35292287096746
20
34.076669552267646
30
0
10
-149.71241902803629
20
32.225019143401582
30
0
10
-149.71764028553144
20
30.237345406549618
30
0
10
-149.55681665402946
20
28.151308740048641
30
0
10
-149.16211943329407
20
23.031707429404058
30
0
10
-147.71993603840593
20
16.94376157212119
30
0
10
-146.61076575793425
20
10.0848835848827
30
0
10
-144.66253339971948
20
-1.9625795243008071
30
0
10
-144.76656552765823
20
-10.342248024007485
30
0
10
-146.63353609932756
20
-21.191709695013088
30
0
10
-147.09513791384848
20
-23.874200394067621
30
0
10
-147.60369222192492
20
-26.388314620939923
30
0
10
-148.04489052952738
20
-28.749610353328492
30
0
10
-148.90840307159792
20
-33.37113415638968
30
0
10
-149.55062961333405
20
-37.411618964788332
30
0
10
-148.91300102677332
20
-41.053754228304015
30
0
10
-148.64729110273387
20
-42.571489638239044
30
0
10
-148.14019338649391
20
-44.054766568485675
30
0
10
-147.28232374401418
20
-45.414879126716478
30
0
10
-146.50293901456112
20
-46.650557492905335
30
0
10
-145.50046727390176
20
-47.677647637133227
30
0
10
-144.35848478860026
20
-48.51830233434854
30
0
10
-143.312074213687
20
-49.288603084437838
30
0
10
-142.17561594262628
20
-49.886911255888833
30
0
10
-141.02445123160894
20
-50.363094096100951
30
0
10
-139.6809319990825
20
-50.918844978577702
30
0
10
-138.28120786488233
20
-51.322876313498512
30
0
10
-136.90474079539362
20
-51.624736216896252
30
0
0
ARC
5
161
100
AcDbEntity
8
0
100
AcDbCircle
10
-134.38394429532616
20
31.98033400289043
30
0
40
10.970000000000208
210
0
220
-0
230
1
100
AcDbArc
50
80.789437335900047
51
91.351312789862561
0
SPLINE
5
162
100
AcDbEntity
8
0
100
AcDbSpline
70
0
71
3
72
23
73
19
74
0
42
0.000000001
43
0.0000000001
44
0.0000000001
40
0
40
0
40
0
40
0
40
3.764228909696139
40
3.764228909696139
40
3.764228909696139
40
8.286355634435294
40
8.286355634435294
40
8.286355634435294
40
16.192483430707227
40
16.192483430707227
40
16.192483430707227
40
25.05003327078775
40
25.05003327078775
40
25.05003327078775
40
32.297636363275572
40
32.297636363275572
40
32.297636363275572
40
35.689297132753701
40
35.689297132753701
40
35.689297132753701
40
35.689297132753701
10
133.13878267071146
20
43.018338608382258
30
0
10
120.79015988251406
20
41.539303803007492
30
0
10
106.00183465468689
20
41.15797271232077
30
0
10
93.364195972706838
20
41.513553534019998
30
0
10
78.181617533252279
20
41.940740436009207
30
0
10
67.294057430203935
20
43.381771721335497
30
0
10
57.156321457632657
20
45.163131239624818
30
0
10
39.434522365306464
20
48.277129826660392
30
0
10
23.299687571445489
20
52.624460809498927
30
0
10
5.4656093719874121
20
53.653272536363552
30
0
10
-14.520796823756683
20
54.806247691125748
30
0
10
-30.277022635800321
20
51.273275257858288
30
0
10
-48.414361364256457
20
47.440148609320616
30
0
10
-63.25343720695777
20
44.304073471511686
30
0
10
-76.835853991876235
20
41.588651302570426
30
0
10
-96.482383090176711
20
40.976650931835756
30
0
10
-105.67889714166472
20
40.690174375044649
30
0
10
-119.85122425870085
20
40.737083566014576
30
0
10
-132.6280513558734
20
42.808895310154881
30
0
0
ARC
5
163
100
AcDbEntity
8
0
100
AcDbCircle
10
66.08222644263769
20
-18.291205963847421
30
0
40
0.19999999999985588
210
0
220
0
230
1
100
AcDbArc
50
172.0061345642122
51
262.006134564283
0
LINE
5
164
100
AcDbEntity
8
0
100
AcDbLine
10
79.52390936635048
20
-20.380806195465794
30
0
11
66.054413027877814
21
-18.489262556667132
31
0
0
ARC
5
165
100
AcDbEntity
8
0
100
AcDbCircle
10
79.551722781110499
20
-20.182749602646162
30
0
40
0.19999999999983475
210
0
220
0
230
1
100
AcDbArc
50
262.00613456423707
51
352.00613456430307
0
LINE
5
166
100
AcDbEntity
8
0
100
AcDbLine
10
81.641758341715942
20
-6.7379667440054103
30
0
11
79.749779373930139
21
-20.210563017405949
31
0
0
ARC
5
167
100
AcDbEntity
8
0
100
AcDbCircle
10
81.443701748896018
20
-6.7101533292454629
30
0
40
0.20000000000011511
210
-0
220
0
230
1
100
AcDbArc
50
-7.9938654357311076
51
82.006134564186652
0
LINE
5
168
100
AcDbEntity
8
0
100
AcDbLine
10
68.002018825183583
20
-4.6205530976266651
30
0
11
81.47151516365625
21
-6.5120967364255922
31
0
0
ARC
5
169
100
AcDbEntity
8
0
100
AcDbCircle
10
67.974205410423565
20
-4.818609690446447
30
0
40
0.1999999999999843
210
0
220
-0
230
1
100
AcDbArc
50
82.006134564243041
51
172.00613456424787
0
LINE
5
170
100
AcDbEntity
8
0
100
AcDbLine
10
65.884169849818051
20
-18.263392549087314
30
0
11
67.776148817603783
21
-4.7907962756864464
31
0
0
ARC
5
171
100
AcDbEntity
8
0
100
AcDbCircle
10
-89.674864096168989
20
12.834285981144875
30
0
40
0.19999999999996021
210
-0
220
0
230
1
100
AcDbArc
50
0
51
89.999999999995936
0
LINE
5
172
100
AcDbEntity
8
0
100
AcDbLine
10
-103.27486409616921
20
13.034285981144871
30
0
11
-89.674864096168989
21
13.034285981144835
31
0
0
ARC
5
173
100
AcDbEntity
8
0
100
AcDbCircle
10
-103.27486409616921
20
12.834285981144911
30
0
40
0.19999999999996021
210
-0
220
0
230
1
100
AcDbArc
50
90
51
180
0
LINE
5
174
100
AcDbEntity
8
0
100
AcDbLine
10
-103.47486409616899
20
-0.76641401885519933
30
0
11
-103.47486409616917
21
12.834285981144884
31
0
0
ARC
5
175
100
AcDbEntity
8
0
100
AcDbCircle
10
-103.27486409616907
20
-0.76641401885527038
30
0
40
0.19999999999992468
210
0
220
0
230
1
100
AcDbArc
50
180
51
270.00000000001222
0
LINE
5
176
100
AcDbEntity
8
0
100
AcDbLine
10
-89.674864096168989
20
-0.96641401885513289
30
0
11
-103.27486409616903
21
-0.96641401885519507
31
0
0
ARC
5
177
100
AcDbEntity
8
0
100
AcDbCircle
10
-89.674864096169031
20
-0.76641401885515492
30
0
40
0.19999999999997797
210
-0
220
0
230
1
100
AcDbArc
50
-89.999999999987793
51
0
0
LINE
5
178
100
AcDbEntity
8
0
100
AcDbLine
10
-89.474864096169028
20
12.834285981144848
30
0
11
-89.474864096169071
21
-0.76641401885513716
31
0
0
LINE
5
179
100
AcDbEntity
8
0
100
AcDbLine
10
30.272866229116566
20
0.68237477575330274
30
0
11
43.742362567589232
21
-1.2091688630456421
31
0
0
ARC
5
180
100
AcDbEntity
8
0
100
AcDbCircle
10
43.714549152829285
20
-1.4072254558653885
30
0
40
0.19999999999992132
210
-0
220
0
230
1
100
AcDbArc
50
-7.9938654357748726
51
82.006134564261089
0
LINE
5
181
100
AcDbEntity
8
0
100
AcDbLine
10
43.912605745648996
20
-1.4350388706254602
30
0
11
42.020626777863299
21
-14.90763514402599
31
0
0
ARC
5
182
100
AcDbEntity
8
0
100
AcDbCircle
10
41.822570185043446
20
-14.879821729265954
30
0
40
0.20000000000003981
210
0
220
0
230
1
100
AcDbArc
50
262.00613456427612
51
352.00613456424082
0
LINE
5
183
100
AcDbEntity
8
0
100
AcDbLine
10
41.794756770283534
20
-15.077878322085807
30
0
11
28.32526043181069
21
-13.186334683287173
31
0
0
ARC
5
184
100
AcDbEntity
8
0
100
AcDbCircle
10
28.353073846570744
20
-12.988278090467364
30
0
40
0.20000000000001947
210
0
220
0
230
1
100
AcDbArc
50
172.00613456424446
51
262.00613456423423
0
LINE
5
185
100
AcDbEntity
8
0
100
AcDbLine
10
28.155017253750927
20
-12.960464675707346
30
0
11
30.04699622153673
21
0.51213159769351257
31
0
0
ARC
5
186
100
AcDbEntity
8
0
100
AcDbCircle
10
30.245052814356583
20
0.48431818293340534
30
0
40
0.20000000000009369
210
0
220
-0
230
1
100
AcDbArc
50
82.006134564257735
51
172.00613456422079
0
LINE
5
187
100
AcDbEntity
8
0
100
AcDbLine
10
-56.666319694438947
20
-15.835066784668852
30
0
11
-70.135410675205236
21
-17.729494693419412
31
0
0
ARC
5
188
100
AcDbEntity
8
0
100
AcDbCircle
10
-70.163266500510275
20
-17.531444061013126
30
0
40
0.19999999999988363
210
0
220
0
230
1
100
AcDbArc
50
188.00613456420206
51
278.00613456428232
0
LINE
5
189
100
AcDbEntity
8
0
100
AcDbLine
10
-70.361317132916597
20
-17.559299886317888
30
0
11
-72.256181034453306
21
-4.087109063914296
31
0
0
ARC
5
190
100
AcDbEntity
8
0
100
AcDbCircle
10
-72.058130402046743
20
-4.0592532386094771
30
0
40
0.20000000000011811
210
0
220
0
230
1
100
AcDbArc
50
98.006134564260506
51
188.00613456420839
0
LINE
5
191
100
AcDbEntity
8
0
100
AcDbLine
10
-72.085986227351739
20
-3.8612026062029514
30
0
11
-58.616895246585763
21
-1.9667746974528555
31
0
0
ARC
5
192
100
AcDbEntity
8
0
100
AcDbCircle
10
-58.589039421280837
20
-2.1648253298593723
30
0
40
0.2000000000001016
210
0
220
-0
230
1
100
AcDbArc
50
8.0061345642817301
51
98.006134564240597
0
LINE
5
193
100
AcDbEntity
8
0
100
AcDbLine
10
-58.390988788874338
20
-2.1369695045543047
30
0
11
-56.496124887337409
21
-15.609160326957525
31
0
0
ARC
5
194
100
AcDbEntity
8
0
100
AcDbCircle
10
-56.694175519743801
20
-15.63701615226246
30
0
40
0.19999999999996634
210
-0
220
0
230
1
100
AcDbArc
50
-81.993865435774495
51
8.0061345642479331
0
ARC
5
195
100
AcDbEntity
8
0
100
AcDbCircle
10
-51.8062292962437
20
18.025680124124065
30
0
40
0.19999999999996948
210
0
220
-0
230
1
100
AcDbArc
50
8.0061345642315356
51
98.006134564247972
0
LINE
5
196
100
AcDbEntity
8
0
100
AcDbLine
10
-65.303176102314751
20
16.329302847780301
30
0
11
-51.834085121548625
21
18.22373075653045
31
0
0
ARC
5
197
100
AcDbEntity
8
0
100
AcDbCircle
10
-65.275320277009783
20
16.131252215373873
30
0
40
0.20000000000001639
210
0
220
0
230
1
100
AcDbArc
50
98.006134564256328
51
188.00613456424293
0
LINE
5
198
100
AcDbEntity
8
0
100
AcDbLine
10
-63.578507007879566
20
2.6312055676653756
30
0
11
-65.473370909416218
21
16.103396390068951
31
0
0
ARC
5
199
100
AcDbEntity
8
0
100
AcDbCircle
10
-63.380456375473209
20
2.6590613929702389
30
0
40
0.19999999999993243
210
0
220
0
230
1
100
AcDbArc
50
188.00613456422943
51
278.00613456427828
0
LINE
5
200
100
AcDbEntity
8
0
100
AcDbLine
10
-49.88350956940188
20
4.3554386693143776
30
0
11
-63.352600550168177
21
2.4610107605639087
31
0
0
ARC
5
201
100
AcDbEntity
8
0
100
AcDbCircle
10
-49.911365394706841
20
4.5534893017207878
30
0
40
0.19999999999999879
210
-0
220
0
230
1
100
AcDbArc
50
-81.993865435744979
51
8.0061345642440056
0
LINE
5
202
100
AcDbEntity
8
0
100
AcDbLine
10
-51.608178663837307
20
18.053535949428941
30
0
11
-49.713314762300413
21
4.5813451270257133
31
0
0
LINE
5
203
100
AcDbEntity
8
0
100
AcDbLine
10
-34.357340753929435
20
1.4453321143848008
30
0
11
-20.888249773163317
21
3.3397600231349411
31
0
0
ARC
5
204
100
AcDbEntity
8
0
100
AcDbCircle
10
-20.860393947858356
20
3.1417093907286109
30
0
40
0.19999999999992993
210
0
220
-0
230
1
100
AcDbArc
50
8.0061345642243662
51
98.006134564257835
0
LINE
5
205
100
AcDbEntity
8
0
100
AcDbLine
10
-20.662343315451999
20
3.1695652160334564
30
0
11
-18.767479413915069
21
-10.302625606369737
31
0
0
ARC
5
206
100
AcDbEntity
8
0
100
AcDbCircle
10
-18.965530046321533
20
-10.330481431674627
30
0
40
0.20000000000003781
210
-0
220
0
230
1
100
AcDbArc
50
-81.993865435756831
51
8.006134564232859
0
LINE
5
207
100
AcDbEntity
8
0
100
AcDbLine
10
-18.937674221016607
20
-10.528532064081082
30
0
11
-32.406765201782903
21
-12.422959972831613
31
0
0
ARC
5
208
100
AcDbEntity
8
0
100
AcDbCircle
10
-32.434621027087793
20
-12.224909340425176
30
0
40
0.20000000000001267
210
0
220
0
230
1
100
AcDbArc
50
188.00613456424671
51
278.00613456423383
0
LINE
5
209
100
AcDbEntity
8
0
100
AcDbLine
10
-32.632671659494221
20
-12.252765165730111
30
0
11
-34.527535561030973
21
1.2194256566734563
31
0
0
ARC
5
210
100
AcDbEntity
8
0
100
AcDbCircle
10
-34.329484928624474
20
1.2472814819783284
30
0
40
0.20000000000006038
210
0
220
0
230
1
100
AcDbArc
50
98.006134564252548
51
188.00613456422622
0
LINE
5
211
100
AcDbEntity
8
0
100
AcDbLine
10
55.994005879337365
20
16.103295468143649
30
0
11
54.102026911551775
21
2.6306991947430536
31
0
0
ARC
5
212
100
AcDbEntity
8
0
100
AcDbCircle
10
53.903970318731851
20
2.6585126095032408
30
0
40
0.2000000000001767
210
0
220
0
230
1
100
AcDbArc
50
262.00613456427135
51
352.00613456420086
0
LINE
5
213
100
AcDbEntity
8
0
100
AcDbLine
10
53.876156903971903
20
2.4604560166832545
30
0
11
40.406660565499166
21
4.3519996554819063
31
0
0
ARC
5
214
100
AcDbEntity
8
0
100
AcDbCircle
10
40.434473980259114
20
4.5500562483017148
30
0
40
0.20000000000001575
210
0
220
0
230
1
100
AcDbArc
50
172.00613456425205
51
262.00613456426487
0
LINE
5
215
100
AcDbEntity
8
0
100
AcDbLine
10
40.236417387439296
20
4.5778696630617066
30
0
11
42.128396355225348
21
18.050465936462579
31
0
0
ARC
5
216
100
AcDbEntity
8
0
100
AcDbCircle
10
42.32645294804513
20
18.0226525217026
30
0
40
0.19999999999997384
210
0
220
-0
230
1
100
AcDbArc
50
82.006134564273424
51
172.00613456425387
0
LINE
5
217
100
AcDbEntity
8
0
100
AcDbLine
10
42.354266362805042
20
18.220709114522386
30
0
11
55.823762701277673
21
16.329165475723443
31
0
0
ARC
5
218
100
AcDbEntity
8
0
100
AcDbCircle
10
55.795949286517441
20
16.131108882903579
30
0
40
0.20000000000011264
210
-0
220
0
230
1
100
AcDbArc
50
-7.9938654357260699
51
82.006134564186539
0
ARC
5
219
100
AcDbEntity
8
0
100
AcDbCircle
10
-117.48772154962403
20
-39.247971475730601
30
0
40
0.19999999999996021
210
-0
220
0
230
1
100
AcDbArc
50
-90
51
0
0
LINE
5
220
100
AcDbEntity
8
0
100
AcDbLine
10
-117.28772154962364
20
-25.646156561980071
30
0
11
-117.28772154962407
21
-39.247971475730552
31
0
0
ARC
5
221
100
AcDbEntity
8
0
100
AcDbCircle
10
-117.4877215496236
20
-25.64615656198
30
0
40
0.19999999999996021
210
-0
220
0
230
1
100
AcDbArc
50
0
51
90
0
LINE
5
222
100
AcDbEntity
8
0
100
AcDbLine
10
-131.08800664271413
20
-25.446156561979727
30
0
11
-117.4877215496236
21
-25.44615656198004
31
0
0
ARC
5
223
100
AcDbEntity
8
0
100
AcDbCircle
10
-131.08800664271411
20
-25.646156561979705
30
0
40
0.19999999999997797
210
0
220
0
230
1
100
AcDbArc
50
90.000000000008143
51
180
0
LINE
5
224
100
AcDbEntity
8
0
100
AcDbLine
10
-131.28800664271392
20
-39.247971475730765
30
0
11
-131.28800664271409
21
-25.646156561979716
31
0
0
ARC
5
225
100
AcDbEntity
8
0
100
AcDbCircle
10
-131.08800664271396
20
-39.247971475730779
30
0
40
0.19999999999996021
210
0
220
0
230
1
100
AcDbArc
50
180
51
269.99999999999187
0
LINE
5
226
100
AcDbEntity
8
0
100
AcDbLine
10
-117.48772154962403
20
-39.447971475730562
30
0
11
-131.08800664271399
21
-39.447971475730739
31
0
0
LINE
5
227
100
AcDbEntity
8
0
100
AcDbLine
10
11.408278520357165
20
3.3337575430132205
30
0
11
24.87777485882976
21
1.4422139042143201
31
0
0
ARC
5
228
100
AcDbEntity
8
0
100
AcDbCircle
10
24.849961444069706
20
1.2441573113945115
30
0
40
0.20000000000001575
210
-0
220
0
230
1
100
AcDbArc
50
-7.9938654357479519
51
82.00613456423406
0
LINE
5
229
100
AcDbEntity
8
0
100
AcDbLine
10
25.048018036889523
20
1.2163438966345197
30
0
11
23.156039069103826
21
-12.25625237676609
31
0
0
ARC
5
230
100
AcDbEntity
8
0
100
AcDbCircle
10
22.957982476283973
20
-12.228438962005983
30
0
40
0.20000000000009369
210
0
220
0
230
1
100
AcDbArc
50
262.00613456425776
51
352.0061345642203
0
LINE
5
231
100
AcDbEntity
8
0
100
AcDbLine
10
22.930169061523991
20
-12.42649555482588
30
0
11
9.4606727230513599
21
-10.534951916027273
31
0
0
ARC
5
232
100
AcDbEntity
8
0
100
AcDbCircle
10
9.4884861378113072
20
-10.336895323207447
30
0
40
0.20000000000001822
210
0
220
0
230
1
100
AcDbArc
50
172.00613456424699
51
262.00613456426498
0
LINE
5
233
100
AcDbEntity
8
0
100
AcDbLine
10
9.2904295449914898
20
-10.309081908447437
30
0
11
11.1824085127774
21
3.1635143649534481
31
0
0
ARC
5
234
100
AcDbEntity
8
0
100
AcDbCircle
10
11.380465105597182
20
3.1357009501934296
30
0
40
0.1999999999999881
210
0
220
-0
230
1
100
AcDbArc
50
82.006134564253486
51
172.0061345642431
0
LINE
5
235
100
AcDbEntity
8
0
100
AcDbLine
10
134.16227845037582
20
-0.81460401885497191
30
0
11
120.56199335728614
21
-0.81460401885514067
31
0
0
ARC
5
236
100
AcDbEntity
8
0
100
AcDbCircle
10
120.56199335728607
20
-0.61460401885519822
30
0
40
0.19999999999996021
210
0
220
0
230
1
100
AcDbArc
50
180
51
270.00000000001626
0
LINE
5
237
100
AcDbEntity
8
0
100
AcDbLine
10
120.36199335728611
20
-0.61460401885513605
30
0
11
120.36199335728575
21
12.987210894895904
31
0
0
ARC
5
238
100
AcDbEntity
8
0
100
AcDbCircle
10
120.56199335728593
20
12.987210894895842
30
0
40
0.20000000000010232
210
0
220
0
230
1
100
AcDbArc
50
90.000000000020364
51
180
0
LINE
5
239
100
AcDbEntity
8
0
100
AcDbLine
10
120.56199335728586
20
13.187210894895944
30
0
11
134.16227845037616
21
13.1872108948955
31
0
0
ARC
5
240
100
AcDbEntity
8
0
100
AcDbCircle
10
134.16227845037616
20
12.987210894895469
30
0
40
0.20000000000003126
210
0
220
-0
230
1
100
AcDbArc
50
0
51
90
0
LINE
5
241
100
AcDbEntity
8
0
100
AcDbLine
10
134.36227845037621
20
12.987210894895522
30
0
11
134.36227845037587
21
-0.61460401885500282
31
0
0
ARC
5
242
100
AcDbEntity
8
0
100
AcDbCircle
10
134.16227845037582
20
-0.614604018854914
30
0
40
0.20000000000005791
210
-0
220
0
230
1
100
AcDbArc
50
270
51
360
0
ARC
5
243
100
AcDbEntity
8
0
100
AcDbCircle
10
22.879368818836383
20
-17.71816585791548
30
0
40
0.1999999999999843
210
0
220
-0
230
1
100
AcDbArc
50
82.006134564243041
51
172.0061345642483
0
LINE
5
244
100
AcDbEntity
8
0
100
AcDbLine
10
20.789333258230727
20
-31.162948716556336
30
0
11
22.681312226016601
21
-17.690352443155479
31
0
0
ARC
5
245
100
AcDbEntity
8
0
100
AcDbCircle
10
20.987389851050615
20
-31.190762131316269
30
0
40
0.20000000000007748
210
0
220
0
230
1
100
AcDbArc
50
172.00613456427152
51
262.00613456423639
0
LINE
5
246
100
AcDbEntity
8
0
100
AcDbLine
10
34.42907277476337
20
-33.280362362934774
30
0
11
20.959576436290561
21
-31.388818724136136
31
0
0
ARC
5
247
100
AcDbEntity
8
0
100
AcDbCircle
10
34.456886189523424
20
-33.082305770115042
30
0
40
0.19999999999993645
210
0
220
0
230
1
100
AcDbArc
50
262.00613456423099
51
352.00613456424941
0
LINE
5
248
100
AcDbEntity
8
0
100
AcDbLine
10
36.546921750128725
20
-19.637522911474434
30
0
11
34.654942782343134
21
-33.110119184875025
31
0
0
ARC
5
249
100
AcDbEntity
8
0
100
AcDbCircle
10
36.348865157308907
20
-19.609709496714444
30
0
40
0.20000000000001575
210
-0
220
0
230
1
100
AcDbArc
50
-7.993865435747443
51
82.006134564234102
0
LINE
5
250
100
AcDbEntity
8
0
100
AcDbLine
10
22.907182233596401
20
-17.520109265095698
30
0
11
36.376678572068961
21
-19.411652903894634
31
0
0
LINE
5
251
100
AcDbEntity
8
0
100
AcDbLine
10
132.06427845037581
20
18.42522852426945
30
0
11
118.46399335728613
21
18.425228524269272
31
0
0
ARC
5
252
100
AcDbEntity
8
0
100
AcDbCircle
10
118.4639933572862
20
18.62522852426935
30
0
40
0.20000000000003126
210
0
220
0
230
1
100
AcDbArc
50
180
51
269.99999999997965
0
LINE
5
253
100
AcDbEntity
8
0
100
AcDbLine
10
118.26399335728617
20
18.625228524269268
30
0
11
118.26399335728588
21
32.22704343802026
31
0
0
ARC
5
254
100
AcDbEntity
8
0
100
AcDbCircle
10
118.4639933572857
20
32.227043438020374
30
0
40
0.19999999999984919
210
0
220
-0
230
1
100
AcDbArc
50
89.999999999938936
51
180
0
LINE
5
255
100
AcDbEntity
8
0
100
AcDbLine
10
118.46399335728591
20
32.427043438020227
30
0
11
132.06427845037638
21
32.427043438019922
31
0
0
ARC
5
256
100
AcDbEntity
8
0
100
AcDbCircle
10
132.06427845037632
20
32.22704343801982
30
0
40
0.20000000000010232
210
0
220
-0
230
1
100
AcDbArc
50
0
51
89.999999999983714
0
LINE
5
257
100
AcDbEntity
8
0
100
AcDbLine
10
132.26427845037642
20
32.227043438019912
30
0
11
132.26427845037591
21
18.625228524269403
31
0
0
ARC
5
258
100
AcDbEntity
8
0
100
AcDbCircle
10
132.06427845037595
20
18.625228524269456
30
0
40
0.20000000000000906
210
0
220
0
230
1
100
AcDbArc
50
269.9999999999593
51
360
0
LINE
5
259
100
AcDbEntity
8
0
100
AcDbLine
10
-53.537480587937338
20
-34.60059238047436
30
0
11
-55.455873269686791
21
-20.961115550570256
31
0
0
ARC
5
260
100
AcDbEntity
8
0
100
AcDbCircle
10
-55.257822637280398
20
-20.933259725265323
30
0
40
0.19999999999998505
210
0
220
0
230
1
100
AcDbArc
50
98.006134564245386
51
188.00613456424733
0
LINE
5
261
100
AcDbEntity
8
0
100
AcDbLine
10
-55.285678462585324
20
-20.735209092858923
30
0
11
-41.816587481819028
21
-18.840781184108835
31
0
0
ARC
5
262
100
AcDbEntity
8
0
100
AcDbCircle
10
-41.788731656514102
20
-19.038831816515149
30
0
40
0.19999999999989845
210
0
220
-0
230
1
100
AcDbArc
50
8.0061345642343671
51
98.00613456424864
0
LINE
5
263
100
AcDbEntity
8
0
100
AcDbLine
10
-41.590681024107781
20
-19.010975991210273
30
0
11
-39.673090705382847
21
-32.644748143448801
31
0
0
ARC
5
264
100
AcDbEntity
8
0
100
AcDbCircle
10
-39.871141337785687
20
-32.672603968753535
30
0
40
0.19999999999643059
210
-0
220
0
230
1
100
AcDbArc
50
-2.6049383651140139
51
8.0061345643329727
0
LINE
5
265
100
AcDbEntity
8
0
100
AcDbLine
10
-39.671348006547049
20
-32.681693786746216
30
0
11
-53.530749507268247
21
-34.631018877729652
31
0
0
ARC
5
266
100
AcDbEntity
8
0
100
AcDbCircle
10
-53.339429955535103
20
-34.572736555170096
30
0
40
0.19999999999576856
210
0
220
0
230
1
100
AcDbArc
50
188.00613456422403
51
196.94248613313951
0
LINE
5
267
100
AcDbEntity
8
0
100
AcDbLine
10
18.264800559738461
20
21.405848240666074
30
0
11
16.372821591952729
21
7.9332519672655177
31
0
0
ARC
5
268
100
AcDbEntity
8
0
100
AcDbCircle
10
16.174764999132982
20
7.9610653820255006
30
0
40
0.199999999999948
210
0
220
0
230
1
100
AcDbArc
50
262.00613456426214
51
352.00613456425179
0
LINE
5
269
100
AcDbEntity
8
0
100
AcDbLine
10
16.146951584373035
20
7.7630087892057453
30
0
11
2.6774552459001555
21
9.6545524280043526
31
0
0
ARC
5
270
100
AcDbEntity
8
0
100
AcDbCircle
10
2.7052686606602094
20
9.8526090208241701
30
0
40
0.20000000000001575
210
0
220
0
230
1
100
AcDbArc
50
172.00613456425205
51
262.00613456423429
0
LINE
5
271
100
AcDbEntity
8
0
100
AcDbLine
10
2.507212067840392
20
9.8804224355841619
30
0
11
4.399191035626373
21
23.353018708985026
31
0
0
ARC
5
272
100
AcDbEntity
8
0
100
AcDbCircle
10
4.597247628446226
20
23.325205294224993
30
0
40
0.20000000000003101
210
0
220
-0
230
1
100
AcDbArc
50
82.006134564275825
51
172.0061345642429
0
LINE
5
273
100
AcDbEntity
8
0
100
AcDbLine
10
4.6250610432061379
20
23.523261887044839
30
0
11
18.094557381678733
21
21.631718248245882
31
0
0
ARC
5
274
100
AcDbEntity
8
0
100
AcDbCircle
10
18.066743966918679
20
21.433661655426114
30
0
40
0.19999999999998738
210
-0
220
0
230
1
100
AcDbArc
50
-7.9938654357630154
51
82.006134564231971
0
ARC
5
275
100
AcDbEntity
8
0
100
AcDbCircle
10
-56.816861252612085
20
36.558413573260978
30
0
40
0.19999999999989415
210
0
220
-0
230
1
100
AcDbArc
50
8.0061345642242738
51
98.006134564261444
0
LINE
5
276
100
AcDbEntity
8
0
100
AcDbLine
10
-70.313808058683165
20
34.862036296917182
30
0
11
-56.844717077917046
21
36.756464205667278
31
0
0
ARC
5
277
100
AcDbEntity
8
0
100
AcDbCircle
10
-70.285952233378197
20
34.66398566451069
30
0
40
0.20000000000007795
210
0
220
0
230
1
100
AcDbArc
50
98.006134564253799
51
188.00613456422502
0
LINE
5
278
100
AcDbEntity
8
0
100
AcDbLine
10
-68.589138964248022
20
21.163939016802246
30
0
11
-70.484002865784703
21
34.636129839205822
31
0
0
ARC
5
279
100
AcDbEntity
8
0
100
AcDbCircle
10
-68.391088331841672
20
21.191794842107111
30
0
40
0.19999999999993243
210
0
220
0
230
1
100
AcDbArc
50
188.00613456423022
51
278.00613456428016
0
LINE
5
280
100
AcDbEntity
8
0
100
AcDbLine
10
-54.894141525770337
20
22.888172118451241
30
0
11
-68.363232506536633
21
20.993744209700775
31
0
0
ARC
5
281
100
AcDbEntity
8
0
100
AcDbCircle
10
-54.921997351075298
20
23.086222750857669
30
0
40
0.20000000000001639
210
-0
220
0
230
1
100
AcDbArc
50
-81.99386543574569
51
8.0061345642452366
0
LINE
5
282
100
AcDbEntity
8
0
100
AcDbLine
10
-56.618810620205764
20
36.586269398565818
30
0
11
-54.72394671866887
21
23.114078576162598
31
0
0
ARC
5
283
100
AcDbEntity
8
0
100
AcDbCircle
10
39.852007461890011
20
-33.841932136578812
30
0
40
0.1999999999999818
210
0
220
0
230
1
100
AcDbArc
50
172.00613456424912
51
262.0061345642635
0
LINE
5
284
100
AcDbEntity
8
0
100
AcDbLine
10
53.29369038560273
20
-35.931532368197281
30
0
11
39.824194047130064
21
-34.039988729398594
31
0
0
ARC
5
285
100
AcDbEntity
8
0
100
AcDbCircle
10
53.321503800362891
20
-35.73347577537745
30
0
40
0.2000000000000568
210
0
220
0
230
1
100
AcDbArc
50
262.00613456420473
51
352.00613456422548
0
LINE
5
286
100
AcDbEntity
8
0
100
AcDbLine
10
55.411539360968334
20
-22.288692916736935
30
0
11
53.519560393182743
21
-35.761289190137539
31
0
0
ARC
5
287
100
AcDbEntity
8
0
100
AcDbCircle
10
55.213482768148481
20
-22.260879501976952
30
0
40
0.20000000000004969
210
-0
220
0
230
1
100
AcDbArc
50
-7.9938654357440342
51
82.00613456420443
0
LINE
5
288
100
AcDbEntity
8
0
100
AcDbLine
10
41.771799844436046
20
-20.171279270358156
30
0
11
55.241296182908641
21
-22.062822909157127
31
0
0
ARC
5
289
100
AcDbEntity
8
0
100
AcDbCircle
10
41.743986429676028
20
-20.369335863177938
30
0
40
0.1999999999999843
210
0
220
-0
230
1
100
AcDbArc
50
82.006134564243041
51
172.00613456426152
0
LINE
5
290
100
AcDbEntity
8
0
100
AcDbLine
10
39.653950869070229
20
-33.814118721818815
30
0
11
41.545929836856246
21
-20.341522448417983
31
0
0
LINE
5
291
100
AcDbEntity
8
0
100
AcDbLine
10
-74.150001199296511
20
-23.388476453152826
30
0
11
-60.680910218530322
21
-21.494048544402631
31
0
0
ARC
5
292
100
AcDbEntity
8
0
100
AcDbCircle
10
-60.653054393225432
20
-21.692099176809101
30
0
40
0.20000000000004786
210
0
220
-0
230
1
100
AcDbArc
50
8.0061345642448263
51
98.00613456423261
0
LINE
5
293
100
AcDbEntity
8
0
100
AcDbLine
10
-60.455003760818968
20
-21.664243351504169
30
0
11
-58.537413442094071
21
-35.298015503743237
31
0
0
ARC
5
294
100
AcDbEntity
8
0
100
AcDbCircle
10
-58.7354640744989
20
-35.325871329048304
30
0
40
0.19999999999844867
210
-0
220
0
230
1
100
AcDbArc
50
-2.6049383648351934
51
8.0061345643483186
0
LINE
5
295
100
AcDbEntity
8
0
100
AcDbLine
10
-58.535670743258201
20
-35.334961147040104
30
0
11
-72.39507224397957
21
-37.284286238023398
31
0
0
ARC
5
296
100
AcDbEntity
8
0
100
AcDbCircle
10
-72.203752692240926
20
-37.226003915462861
30
0
40
0.20000000000132248
210
0
220
0
230
1
100
AcDbArc
50
188.00613456428414
51
196.94248613294914
0
LINE
5
297
100
AcDbEntity
8
0
100
AcDbLine
10
-72.401803324648625
20
-37.253859740768107
30
0
11
-74.320196006397978
21
-23.614382910864169
31
0
0
ARC
5
298
100
AcDbEntity
8
0
100
AcDbCircle
10
-74.122145373991629
20
-23.58652708555919
30
0
40
0.19999999999994494
210
0
220
0
230
1
100
AcDbArc
50
98.006134564234699
51
188.00613456426245
0
ARC
5
299
100
AcDbEntity
8
0
100
AcDbCircle
10
93.680778450375755
20
-0.61460401885486071
30
0
40
0.20000000000012008
210
-0
220
0
230
1
100
AcDbArc
50
270.00000000002035
51
360
0
LINE
5
300
100
AcDbEntity
8
0
100
AcDbLine
10
93.880778450376425
20
12.987210894895522
30
0
11
93.880778450375857
21
-0.61460401885500282
31
0
0
ARC
5
301
100
AcDbEntity
8
0
100
AcDbCircle
10
93.680778450376465
20
12.987210894895549
30
0
40
0.19999999999996021
210
-0
220
0
230
1
100
AcDbArc
50
0
51
89.999999999995936
0
LINE
5
302
100
AcDbEntity
8
0
100
AcDbLine
10
80.080493357286144
20
13.187210894895873
30
0
11
93.680778450376465
21
13.187210894895509
31
0
0
ARC
5
303
100
AcDbEntity
8
0
100
AcDbCircle
10
80.080493357286002
20
12.987210894895851
30
0
40
0.20000000000002238
210
0
220
-0
230
1
100
AcDbArc
50
89.999999999959286
51
180
0
LINE
5
304
100
AcDbEntity
8
0
100
AcDbLine
10
79.880493357286255
20
-0.61460401885513605
30
0
11
79.880493357285971
21
12.987210894895904
31
0
0
ARC
5
305
100
AcDbEntity
8
0
100
AcDbCircle
10
80.080493357286215
20
-0.61460401885515381
30
0
40
0.19999999999996021
210
0
220
0
230
1
100
AcDbArc
50
180
51
270
0
LINE
5
306
100
AcDbEntity
8
0
100
AcDbLine
10
93.680778450375826
20
-0.81460401885498079
30
0
11
80.080493357286215
21
-0.81460401885511402
31
0
0
LINE
5
307
100
AcDbEntity
8
0
100
AcDbLine
10
113.1319827149418
20
-6.0542891051040915
30
0
11
126.73226780803212
21
-6.054289105104429
31
0
0
ARC
5
308
100
AcDbEntity
8
0
100
AcDbCircle
10
126.73226780803212
20
-6.2542891051044602
30
0
40
0.20000000000003126
210
-0
220
0
230
1
100
AcDbArc
50
0
51
90.000000000004079
0
LINE
5
309
100
AcDbEntity
8
0
100
AcDbLine
10
126.93226780803215
20
-6.2542891051044691
30
0
11
126.93226780803201
21
-19.856104018854978
31
0
0
ARC
5
310
100
AcDbEntity
8
0
100
AcDbCircle
10
126.73226780803212
20
-19.856104018855085
30
0
40
0.19999999999986251
210
0
220
0
230
1
100
AcDbArc
50
-90.000000000061064
51
0
0
LINE
5
311
100
AcDbEntity
8
0
100
AcDbLine
10
126.73226780803191
20
-20.056104018854946
30
0
11
113.13198271494215
21
-20.056104018855095
31
0
0
ARC
5
312
100
AcDbEntity
8
0
100
AcDbCircle
10
113.13198271494208
20
-19.856104018855063
30
0
40
0.20000000000003126
210
0
220
0
230
1
100
AcDbArc
50
180
51
270.00000000002035
0
LINE
5
313
100
AcDbEntity
8
0
100
AcDbLine
10
112.93198271494205
20
-19.85610401885512
30
0
11
112.93198271494177
21
-6.2542891051041138
31
0
0
ARC
5
314
100
AcDbEntity
8
0
100
AcDbCircle
10
113.1319827149418
20
-6.2542891051040961
30
0
40
0.20000000000000462
210
-0
220
0
230
1
100
AcDbArc
50
90
51
180
0
LINE
5
315
100
AcDbEntity
8
0
100
AcDbLine
10
72.740691889199525
20
-0.19130185143418466
30
0
11
59.271195550726787
21
1.7002417873644404
31
0
0
ARC
5
316
100
AcDbEntity
8
0
100
AcDbCircle
10
59.299008965486877
20
1.8982983801842046
30
0
40
0.19999999999999293
210
0
220
0
230
1
100
AcDbArc
50
172.0061345642255
51
262.00613456422286
0
LINE
5
317
100
AcDbEntity
8
0
100
AcDbLine
10
59.100952372667095
20
1.9261117949442852
30
0
11
60.992931340452898
21
15.398708068345123
31
0
0
ARC
5
318
100
AcDbEntity
8
0
100
AcDbCircle
10
61.19098793327268
20
15.37089465358514
30
0
40
0.19999999999996229
210
0
220
-0
230
1
100
AcDbArc
50
82.006134564242146
51
172.00613456425387
0
LINE
5
319
100
AcDbEntity
8
0
100
AcDbLine
10
61.218801348032699
20
15.568951246404898
30
0
11
74.688297686505223
21
13.677407607605986
31
0
0
ARC
5
320
100
AcDbEntity
8
0
100
AcDbCircle
10
74.660484271745347
20
13.479351014786168
30
0
40
0.19999999999998058
210
-0
220
0
230
1
100
AcDbArc
50
-7.9938654357498864
51
82.00613456428394
0
LINE
5
321
100
AcDbEntity
8
0
100
AcDbLine
10
74.858540864565128
20
13.451537600026175
30
0
11
72.966561896779325
21
-0.021058673374403369
31
0
0
ARC
5
322
100
AcDbEntity
8
0
100
AcDbCircle
10
72.768505303959543
20
0.0067547413855972849
30
0
40
0.19999999999998433
210
0
220
0
230
1
100
AcDbArc
50
262.00613456424304
51
352.00613456424804
0
ARC
5
323
100
AcDbEntity
8
0
100
AcDbCircle
10
131.21027845037582
20
-39.096271475730518
30
0
40
0.20000000000010232
210
-0
220
0
230
1
100
AcDbArc
50
270
51
360
0
LINE
5
324
100
AcDbEntity
8
0
100
AcDbLine
10
131.4102784503765
20
-25.494456561980048
30
0
11
131.41027845037593
21
-39.096271475730589
31
0
0
ARC
5
325
100
AcDbEntity
8
0
100
AcDbCircle
10
131.21027845037645
20
-25.494456561980083
30
0
40
0.20000000000003126
210
0
220
-0
230
1
100
AcDbArc
50
0
51
90.000000000016286
0
LINE
5
326
100
AcDbEntity
8
0
100
AcDbLine
10
117.60999335728592
20
-25.294456561979697
30
0
11
131.21027845037639
21
-25.294456561980052
31
0
0
ARC
5
327
100
AcDbEntity
8
0
100
AcDbCircle
10
117.60999335728599
20
-25.49445656197981
30
0
40
0.2000000000001112
210
0
220
0
230
1
100
AcDbArc
50
90.000000000020364
51
180
0
LINE
5
328
100
AcDbEntity
8
0
100
AcDbLine
10
117.40999335728617
20
-39.096271475730767
30
0
11
117.40999335728588
21
-25.494456561979746
31
0
0
ARC
5
329
100
AcDbEntity
8
0
100
AcDbCircle
10
117.60999335728613
20
-39.096271475730823
30
0
40
0.19999999999996021
210
0
220
0
230
1
100
AcDbArc
50
180
51
270.00000000002035
0
LINE
5
330
100
AcDbEntity
8
0
100
AcDbLine
10
131.21027845037582
20
-39.29627147573062
30
0
11
117.6099933572862
21
-39.296271475730784
31
0
0
ARC
5
331
100
AcDbEntity
8
0
100
AcDbCircle
10
-98.437721549623546
20
-25.64615656198
30
0
40
0.19999999999992468
210
-0
220
0
230
1
100
AcDbArc
50
0
51
90.000000000024428
0
LINE
5
332
100
AcDbEntity
8
0
100
AcDbLine
10
-112.03800664271409
20
-25.446156561979727
30
0
11
-98.437721549623632
21
-25.446156561980075
31
0
0
ARC
5
333
100
AcDbEntity
8
0
100
AcDbCircle
10
-112.03800664271405
20
-25.646156561979705
30
0
40
0.19999999999997797
210
0
220
0
230
1
100
AcDbArc
50
90.000000000012221
51
180
0
LINE
5
334
100
AcDbEntity
8
0
100
AcDbLine
10
-112.23800664271394
20
-39.247971475730765
30
0
11
-112.23800664271403
21
-25.646156561979716
31
0
0
ARC
5
335
100
AcDbEntity
8
0
100
AcDbCircle
10
-112.03800664271397
20
-39.247971475730765
30
0
40
0.19999999999997797
210
0
220
0
230
1
100
AcDbArc
50
180
51
270.00000000001626
0
LINE
5
336
100
AcDbEntity
8
0
100
AcDbLine
10
-98.437721549623944
20
-39.447971475730526
30
0
11
-112.03800664271391
21
-39.447971475730739
31
0
0
ARC
5
337
100
AcDbEntity
8
0
100
AcDbCircle
10
-98.437721549623973
20
-39.247971475730623
30
0
40
0.19999999999990692
210
-0
220
0
230
1
100
AcDbArc
50
-89.999999999991857
51
0
0
LINE
5
338
100
AcDbEntity
8
0
100
AcDbLine
10
-98.237721549623629
20
-25.646156561980071
30
0
11
-98.237721549624055
21
-39.247971475730552
31
0
0
ARC
5
339
100
AcDbEntity
8
0
100
AcDbCircle
10
-70.671279632128474
20
15.377591034886478
30
0
40
0.20000000000017007
210
0
220
-0
230
1
100
AcDbArc
50
8.0061345642745589
51
98.006134564233818
0
LINE
5
340
100
AcDbEntity
8
0
100
AcDbLine
10
-84.16822643819944
20
13.681213758542871
30
0
11
-70.6991354574334
21
15.57564166729307
31
0
0
ARC
5
341
100
AcDbEntity
8
0
100
AcDbCircle
10
-84.1403706128946
20
13.483163126136493
30
0
40
0.19999999999995316
210
0
220
0
230
1
100
AcDbArc
50
98.006134564222037
51
188.00613456425543
0
LINE
5
342
100
AcDbEntity
8
0
100
AcDbLine
10
-82.44355734376424
20
-0.016883521572017557
30
0
11
-84.33842124530095
21
13.45530730083154
31
0
0
ARC
5
343
100
AcDbEntity
8
0
100
AcDbCircle
10
-82.245506711357805
20
0.010972303732943445
30
0
40
0.20000000000001639
210
0
220
0
230
1
100
AcDbArc
50
188.00613456425398
51
278.00613456423173
0
LINE
5
344
100
AcDbEntity
8
0
100
AcDbLine
10
-68.748559905286513
20
1.7073495800769667
30
0
11
-82.217650886052922
21
-0.18707832867352892
31
0
0
ARC
5
345
100
AcDbEntity
8
0
100
AcDbCircle
10
-68.77641573059158
20
1.9054002124834835
30
0
40
0.20000000000011919
210
-0
220
0
230
1
100
AcDbArc
50
-81.99386543571903
51
8.0061345642147739
0
LINE
5
346
100
AcDbEntity
8
0
100
AcDbLine
10
-70.473228999721897
20
15.405446860191532
30
0
11
-68.578365098185046
21
1.9332560377883201
31
0
0
LINE
5
347
100
AcDbEntity
8
0
100
AcDbLine
10
37.129388268497969
20
18.754465473406135
30
0
11
35.237409300712201
21
5.2818692000055556
31
0
0
ARC
5
348
100
AcDbEntity
8
0
100
AcDbCircle
10
35.039352707892419
20
5.3096826147655563
30
0
40
0.1999999999999843
210
0
220
0
230
1
100
AcDbArc
50
262.00613456424304
51
352.00613456424838
0
LINE
5
349
100
AcDbEntity
8
0
100
AcDbLine
10
35.011539293132401
20
5.1116260219457743
30
0
11
21.542042954659557
21
7.003169660744426
31
0
0
ARC
5
350
100
AcDbEntity
8
0
100
AcDbCircle
10
21.569856369419504
20
7.2012262535641636
30
0
40
0.19999999999992257
210
0
220
0
230
1
100
AcDbArc
50
172.00613456422258
51
262.00613456426112
0
LINE
5
351
100
AcDbEntity
8
0
100
AcDbLine
10
21.371799776599794
20
7.2290396683242442
30
0
11
23.263778744385846
21
20.701635941725101
31
0
0
ARC
5
352
100
AcDbEntity
8
0
100
AcDbCircle
10
23.461835337205628
20
20.673822526965125
30
0
40
0.19999999999996942
210
0
220
-0
230
1
100
AcDbArc
50
82.006134564273296
51
172.00613456425489
0
LINE
5
353
100
AcDbEntity
8
0
100
AcDbLine
10
23.489648751965539
20
20.871879119784907
30
0
11
36.959145090438206
21
18.980335480985957
31
0
0
ARC
5
354
100
AcDbEntity
8
0
100
AcDbCircle
10
36.931331675678258
20
18.782278888166211
30
0
40
0.19999999999992193
210
-0
220
0
230
1
100
AcDbArc
50
-7.9938654357758905
51
82.006134564263107
0
ARC
5
355
100
AcDbEntity
8
0
100
AcDbCircle
10
72.186038785590441
20
-38.385233643494978
30
0
40
0.20000000000001947
210
0
220
0
230
1
100
AcDbArc
50
262.00613456424446
51
352.00613456425032
0
LINE
5
356
100
AcDbEntity
8
0
100
AcDbLine
10
74.276074346195884
20
-24.940450784854391
30
0
11
72.384095378410294
21
-38.413047058254975
31
0
0
ARC
5
357
100
AcDbEntity
8
0
100
AcDbCircle
10
74.078017753376173
20
-24.912637370094288
30
0
40
0.19999999999992624
210
-0
220
0
230
1
100
AcDbArc
50
-7.9938654357838796
51
82.006134564240782
0
LINE
5
358
100
AcDbEntity
8
0
100
AcDbLine
10
60.636334829663525
20
-22.823037138475605
30
0
11
74.105831168136191
21
-24.714580777274566
31
0
0
ARC
5
359
100
AcDbEntity
8
0
100
AcDbCircle
10
60.60852141490372
20
-23.021093731295508
30
0
40
0.20000000000007775
210
0
220
-0
230
1
100
AcDbArc
50
82.00613456430834
51
172.00613456422403
0
LINE
5
360
100
AcDbEntity
8
0
100
AcDbLine
10
58.518485854297921
20
-36.465876589936322
30
0
11
60.410464822083867
21
-22.993280316535412
31
0
0
ARC
5
361
100
AcDbEntity
8
0
100
AcDbCircle
10
58.716542447117774
20
-36.493690004696234
30
0
40
0.20000000000003981
210
0
220
0
230
1
100
AcDbArc
50
172.00613456427615
51
262.00613456424531
0
LINE
5
362
100
AcDbEntity
8
0
100
AcDbLine
10
72.158225370830422
20
-38.583290236314795
30
0
11
58.688729032357756
21
-36.691746597516072
31
0
0
ARC
5
363
100
AcDbEntity
8
0
100
AcDbCircle
10
-77.454089757165363
20
-4.81291441909665
30
0
40
0.20000000000001392
210
0
220
-0
230
1
100
AcDbArc
50
8.0061345642489385
51
98.006134564272955
0
LINE
5
364
100
AcDbEntity
8
0
100
AcDbLine
10
-90.951036563236514
20
-6.5092916954403712
30
0
11
-77.481945582470388
21
-4.6148637866902309
31
0
0
ARC
5
365
100
AcDbEntity
8
0
100
AcDbCircle
10
-90.923180737931588
20
-6.7073423278467903
30
0
40
0.20000000000000265
210
0
220
0
230
1
100
AcDbArc
50
98.006134564244604
51
188.00613456424873
0
LINE
5
366
100
AcDbEntity
8
0
100
AcDbLine
10
-89.226367468801271
20
-20.207388975555311
30
0
11
-91.121231370338023
21
-6.7351981531517335
31
0
0
ARC
5
367
100
AcDbEntity
8
0
100
AcDbCircle
10
-89.028316836394836
20
-20.179533150250329
30
0
40
0.20000000000001888
210
0
220
0
230
1
100
AcDbArc
50
188.00613456426004
51
278.00613456426453
0
LINE
5
368
100
AcDbEntity
8
0
100
AcDbLine
10
-75.531370030323586
20
-18.483155873906306
30
0
11
-89.00046101108984
21
-20.377583782656757
31
0
0
ARC
5
369
100
AcDbEntity
8
0
100
AcDbCircle
10
-75.559225855628512
20
-18.285105241499949
30
0
40
0.19999999999994109
210
-0
220
0
230
1
100
AcDbArc
50
-81.993865435752923
51
8.0061345642664747
0
LINE
5
370
100
AcDbEntity
8
0
100
AcDbLine
10
-77.256039124758928
20
-4.7850585937917067
30
0
11
-75.361175223222148
21
-18.257249416194952
31
0
0
ARC
5
371
100
AcDbEntity
8
0
100
AcDbCircle
10
-77.600514410385557
20
-37.97396041828496
30
0
40
0.20000000000043699
210
-0
220
0
230
1
100
AcDbArc
50
-2.6049383650374769
51
8.0061345640830108
0
LINE
5
372
100
AcDbEntity
8
0
100
AcDbLine
10
-79.320054096703785
20
-24.312332440741571
30
0
11
-77.402463777978625
21
-37.946104592980532
31
0
0
ARC
5
373
100
AcDbEntity
8
0
100
AcDbCircle
10
-79.518104729110064
20
-24.340188266046336
30
0
40
0.19999999999984847
210
0
220
-0
230
1
100
AcDbArc
50
8.0061345642048192
51
98.00613456428357
0
LINE
5
374
100
AcDbEntity
8
0
100
AcDbLine
10
-93.015051535181215
20
-26.036565542390193
30
0
11
-79.545960554415103
21
-24.142137633640086
31
0
0
ARC
5
375
100
AcDbEntity
8
0
100
AcDbCircle
10
-92.987195709876218
20
-26.234616174796699
30
0
40
0.20000000000010051
210
0
220
0
230
1
100
AcDbArc
50
98.006134564261288
51
188.00613456422639
0
LINE
5
376
100
AcDbEntity
8
0
100
AcDbLine
10
-91.2668536605333
20
-39.901948830005345
30
0
11
-93.18524634228271
21
-26.262472000101571
31
0
0
ARC
5
377
100
AcDbEntity
8
0
100
AcDbCircle
10
-91.068803028128372
20
-39.874093004700455
30
0
40
0.19999999999852888
210
0
220
0
230
1
100
AcDbArc
50
188.00613456429392
51
196.94248613314983
0
LINE
5
378
100
AcDbEntity
8
0
100
AcDbLine
10
-77.400721079142897
20
-37.983050236277556
30
0
11
-91.260122579864145
21
-39.93237532726085
31
0
0
ARC
5
379
100
AcDbEntity
8
0
100
AcDbCircle
10
2.1228021422912491
20
-28.539379364056401
30
0
40
0.2000000000000145
210
0
220
0
230
1
100
AcDbArc
50
172.00613456425455
51
262.00613456423383
0
LINE
5
380
100
AcDbEntity
8
0
100
AcDbLine
10
15.564485066003897
20
-30.628979595674835
30
0
11
2.0949887275311951
21
-28.737435956876205
31
0
0
ARC
5
381
100
AcDbEntity
8
0
100
AcDbCircle
10
15.592298480763915
20
-30.430923002855003
30
0
40
0.20000000000003706
210
0
220
0
230
1
100
AcDbArc
50
262.00613456424503
51
352.00613456423184
0
LINE
5
382
100
AcDbEntity
8
0
100
AcDbLine
10
17.682334041369359
20
-16.986140144214474
30
0
11
15.790355073583768
21
-30.458736417615071
31
0
0
ARC
5
383
100
AcDbEntity
8
0
100
AcDbCircle
10
17.484277448549541
20
-16.95832672945448
30
0
40
0.20000000000001575
210
-0
220
0
230
1
100
AcDbArc
50
-7.9938654357484609
51
82.00613456423396
0
LINE
5
384
100
AcDbEntity
8
0
100
AcDbLine
10
4.0425945248370709
20
-14.868726497835771
30
0
11
17.512090863309595
21
-16.760270136634674
31
0
0
ARC
5
385
100
AcDbEntity
8
0
100
AcDbCircle
10
4.0147811100770525
20
-15.06678309065558
30
0
40
0.20000000000001067
210
0
220
-0
230
1
100
AcDbArc
50
82.006134564244107
51
172.00613456423955
0
LINE
5
386
100
AcDbEntity
8
0
100
AcDbLine
10
1.9247455494714316
20
-28.511565949296418
30
0
11
3.816724517257235
21
-15.038969675895544
31
0
0
ARC
5
387
100
AcDbEntity
8
0
100
AcDbCircle
10
-51.298943763799016
20
-14.878176700719106
30
0
40
0.19999999999993368
210
0
220
0
230
1
100
AcDbArc
50
188.00613456423196
51
278.00613456425771
0
LINE
5
388
100
AcDbEntity
8
0
100
AcDbLine
10
-37.801996957727724
20
-13.181799424374985
30
0
11
-51.271087938494055
21
-15.076227333125454
31
0
0
ARC
5
389
100
AcDbEntity
8
0
100
AcDbCircle
10
-37.829852783032614
20
-12.983748791968583
30
0
40
0.19999999999998014
210
-0
220
0
230
1
100
AcDbArc
50
-81.993865435764775
51
8.0061345642453734
0
LINE
5
390
100
AcDbEntity
8
0
100
AcDbLine
10
-39.52666605216308
20
0.5162978557395892
30
0
11
-37.631802150626221
21
-12.955892966663658
31
0
0
ARC
5
391
100
AcDbEntity
8
0
100
AcDbCircle
10
-39.724716684569579
20
0.4884420304345749
30
0
40
0.20000000000009416
210
0
220
-0
230
1
100
AcDbArc
50
8.0061345642665653
51
98.006134564230635
0
LINE
5
392
100
AcDbEntity
8
0
100
AcDbLine
10
-53.221663490640587
20
-1.2079352459090842
30
0
11
-39.752572509874469
21
0.68649266284109167
31
0
0
ARC
5
393
100
AcDbEntity
8
0
100
AcDbCircle
10
-53.193807665335733
20
-1.4059858783155121
30
0
40
0.20000000000000157
210
0
220
0
230
1
100
AcDbArc
50
98.006134564224084
51
188.00613456423915
0
LINE
5
394
100
AcDbEntity
8
0
100
AcDbLine
10
-51.496994396205373
20
-14.906032526023978
30
0
11
-53.391858297742161
21
-1.4338417036204198
31
0
0
LINE
5
395
100
AcDbEntity
8
0
100
AcDbLine
10
108.2540017227474
20
18.425595981144962
30
0
11
94.65371662965758
21
18.425595981144809
31
0
0
ARC
5
396
100
AcDbEntity
8
0
100
AcDbCircle
10
94.65371662965758
20
18.625595981144688
30
0
40
0.19999999999988916
210
0
220
0
230
1
100
AcDbArc
50
180
51
270
0
LINE
5
397
100
AcDbEntity
8
0
100
AcDbLine
10
94.453716629657691
20
18.625595981144791
30
0
11
94.453716629657336
21
32.227410894895804
31
0
0
ARC
5
398
100
AcDbEntity
8
0
100
AcDbCircle
10
94.653716629657367
20
32.227410894895819
30
0
40
0.20000000000002682
210
0
220
0
230
1
100
AcDbArc
50
90.000000000020364
51
180
0
LINE
5
399
100
AcDbEntity
8
0
100
AcDbLine
10
94.653716629657296
20
32.427410894895843
30
0
11
108.25400172274769
21
32.427410894895445
31
0
0
ARC
5
400
100
AcDbEntity
8
0
100
AcDbCircle
10
108.25400172274776
20
32.227410894895414
30
0
40
0.20000000000003126
210
0
220
-0
230
1
100
AcDbArc
50
0
51
90.000000000020364
0
LINE
5
401
100
AcDbEntity
8
0
100
AcDbLine
10
108.45400172274779
20
32.227410894895463
30
0
11
108.45400172274744
21
18.62559598114494
31
0
0
ARC
5
402
100
AcDbEntity
8
0
100
AcDbCircle
10
108.25400172274733
20
18.625595981145018
30
0
40
0.20000000000005791
210
-0
220
0
230
1
100
AcDbArc
50
270.00000000002035
51
360
0
LINE
5
403
100
AcDbEntity
8
0
100
AcDbLine
10
100.53889552034256
20
-20.056104018854963
30
0
11
86.938610427252883
21
-20.056104018855105
31
0
0
ARC
5
404
100
AcDbEntity
8
0
100
AcDbCircle
10
86.938610427252883
20
-19.856104018855145
30
0
40
0.19999999999996021
210
0
220
0
230
1
100
AcDbArc
50
180
51
269.99999999999591
0
LINE
5
405
100
AcDbEntity
8
0
100
AcDbLine
10
86.738610427252922
20
-19.85610401885512
30
0
11
86.738610427252709
21
-6.2542891051041138
31
0
0
ARC
5
406
100
AcDbEntity
8
0
100
AcDbCircle
10
86.93861042725274
20
-6.254289105104105
30
0
40
0.20000000000003126
210
0
220
0
230
1
100
AcDbArc
50
90.000000000020364
51
180
0
LINE
5
407
100
AcDbEntity
8
0
100
AcDbLine
10
86.938610427252669
20
-6.0542891051040737
30
0
11
100.53889552034285
21
-6.0542891051044734
31
0
0
ARC
5
408
100
AcDbEntity
8
0
100
AcDbCircle
10
100.53889552034299
20
-6.2542891051044336
30
0
40
0.19999999999996021
210
-0
220
0
230
1
100
AcDbArc
50
0
51
90.000000000040714
0
LINE
5
409
100
AcDbEntity
8
0
100
AcDbLine
10
100.73889552034295
20
-6.2542891051044691
30
0
11
100.7388955203426
21
-19.856104018854992
31
0
0
ARC
5
410
100
AcDbEntity
8
0
100
AcDbCircle
10
100.53889552034249
20
-19.856104018854843
30
0
40
0.20000000000012008
210
-0
220
0
230
1
100
AcDbArc
50
270.00000000002035
51
360
0
ARC
5
411
100
AcDbEntity
8
0
100
AcDbCircle
10
-117.67786397607965
20
-6.4058140504982042
30
0
40
0.2000000000000185
210
0
220
-0
230
1
100
AcDbArc
50
2.7334093637975255e-05
51
90.00000200345022
0
LINE
5
412
100
AcDbEntity
8
0
100
AcDbLine
10
-131.27986470278404
20
-6.2058145261196529
30
0
11
-117.67786398307301
21
-6.2058140504981818
31
0
0
ARC
5
413
100
AcDbEntity
8
0
100
AcDbCircle
10
-131.27986469579065
20
-6.4058145261196753
30
0
40
0.20000000000002249
210
0
220
0
230
1
100
AcDbArc
50
90.000002003458363
51
179.99997555164342
0
LINE
5
414
100
AcDbEntity
8
0
100
AcDbLine
10
-131.4798705011857
20
-20.007908321154019
30
0
11
-131.47986469579064
21
-6.4058144407593431
31
0
0
ARC
5
415
100
AcDbEntity
8
0
100
AcDbCircle
10
-131.27987050118574
20
-20.007908406514375
30
0
40
0.19999999999997842
210
0
220
0
230
1
100
AcDbArc
50
179.99997556655549
51
270.00000454180355
0
LINE
5
416
100
AcDbEntity
8
0
100
AcDbLine
10
-117.67785746932606
20
-20.207907328288375
30
0
11
-131.27987048533186
21
-20.207908406514356
31
0
0
ARC
5
417
100
AcDbEntity
8
0
100
AcDbCircle
10
-117.67785748517996
20
-20.007907328288379
30
0
40
0.19999999999999635
210
-0
220
0
230
1
100
AcDbArc
50
-89.999995458192345
51
2.7334093637975255e-05
0
LINE
5
418
100
AcDbEntity
8
0
100
AcDbLine
10
-117.47786397607966
20
-6.4058139550584681
30
0
11
-117.47785748517998
21
-20.00790723284867
31
0
0
LINE
5
419
100
AcDbEntity
8
0
100
AcDbLine
10
-129.66886409616919
20
-0.76641401885513716
30
0
11
-129.66886409616905
21
12.834285981144884
31
0
0
ARC
5
420
100
AcDbEntity
8
0
100
AcDbCircle
10
-129.46886409616906
20
12.834285981144893
30
0
40
0.19999999999996909
210
0
220
-0
230
1
100
AcDbArc
50
89.999999999991857
51
180
0
LINE
5
421
100
AcDbEntity
8
0
100
AcDbLine
10
-129.46886409616903
20
13.034285981144862
30
0
11
-115.86886409616909
21
13.03428598114488
31
0
0
ARC
5
422
100
AcDbEntity
8
0
100
AcDbCircle
10
-115.86886409616912
20
12.834285981144884
30
0
40
0.19999999999999574
210
0
220
-0
230
1
100
AcDbArc
50
0
51
89.999999999991857
0
LINE
5
423
100
AcDbEntity
8
0
100
AcDbLine
10
-115.66886409616913
20
12.834285981144884
30
0
11
-115.66886409616899
21
-0.76641401885513716
31
0
0
ARC
5
424
100
AcDbEntity
8
0
100
AcDbCircle
10
-115.86886409616903
20
-0.76641401885507499
30
0
40
0.20000000000005791
210
-0
220
0
230
1
100
AcDbArc
50
270
51
360
0
LINE
5
425
100
AcDbEntity
8
0
100
AcDbLine
10
-115.86886409616903
20
-0.96641401885513289
30
0
11
-129.46886409616917
21
-0.96641401885512401
31
0
0
ARC
5
426
100
AcDbEntity
8
0
100
AcDbCircle
10
-129.46886409616917
20
-0.76641401885511051
30
0
40
0.2000000000000135
210
0
220
0
230
1
100
AcDbArc
50
180
51
270
0
LINE
5
427
100
AcDbEntity
8
0
100
AcDbLine
10
93.310278450376316
20
-25.494456561980048
30
0
11
93.31027845037589
21
-39.096271475730624
31
0
0
ARC
5
428
100
AcDbEntity
8
0
100
AcDbCircle
10
93.110278450375858
20
-39.096271475730624
30
0
40
0.19999999999999574
210
-0
220
0
230
1
100
AcDbArc
50
-89.99999999997965
51
0
0
LINE
5
429
100
AcDbEntity
8
0
100
AcDbLine
10
93.11027845037593
20
-39.29627147573062
30
0
11
79.509993357286106
21
-39.296271475730762
31
0
0
ARC
5
430
100
AcDbEntity
8
0
100
AcDbCircle
10
79.509993357286106
20
-39.096271475730802
30
0
40
0.19999999999996021
210
0
220
0
230
1
100
AcDbArc
50
180
51
270
0
LINE
5
431
100
AcDbEntity
8
0
100
AcDbLine
10
79.309993357286146
20
-39.096271475730767
30
0
11
79.309993357285862
21
-25.494456561979739
31
0
0
ARC
5
432
100
AcDbEntity
8
0
100
AcDbCircle
10
79.509993357285964
20
-25.494456561979906
30
0
40
0.20000000000012896
210
0
220
0
230
1
100
AcDbArc
50
90.000000000020364
51
180
0
LINE
5
433
100
AcDbEntity
8
0
100
AcDbLine
10
79.509993357285893
20
-25.294456561979779
30
0
11
93.110278450376143
21
-25.29445656198007
31
0
0
ARC
5
434
100
AcDbEntity
8
0
100
AcDbCircle
10
93.110278450376356
20
-25.49445656198003
30
0
40
0.19999999999996021
210
-0
220
0
230
1
100
AcDbArc
50
0
51
90.000000000061064
0
ARC
5
435
100
AcDbEntity
8
0
100
AcDbCircle
10
-109.94286469579068
20
-6.4058145261196753
30
0
40
0.20000000000000473
210
0
220
0
230
1
100
AcDbArc
50
90.000002003454298
51
179.99997556655549
0
LINE
5
436
100
AcDbEntity
8
0
100
AcDbLine
10
-110.14287050118575
20
-20.007908321154019
30
0
11
-110.14286469579065
21
-6.4058144407593431
31
0
0
ARC
5
437
100
AcDbEntity
8
0
100
AcDbCircle
10
-109.94287050118575
20
-20.007908406514339
30
0
40
0.20000000000001394
210
0
220
0
230
1
100
AcDbArc
50
179.99997556655549
51
270.00000454181173
0
LINE
5
438
100
AcDbEntity
8
0
100
AcDbLine
10
-96.340857469326011
20
-20.207907328288364
30
0
11
-109.94287048533184
21
-20.207908406514356
31
0
0
ARC
5
439
100
AcDbEntity
8
0
100
AcDbCircle
10
-96.340857485179967
20
-20.007907328288379
30
0
40
0.19999999999998747
210
-0
220
0
230
1
100
AcDbArc
50
-89.999995458176059
51
2.7334093637975255e-05
0
LINE
5
440
100
AcDbEntity
8
0
100
AcDbLine
10
-96.140863976079601
20
-6.4058139550584681
30
0
11
-96.140857485180007
21
-20.00790723284867
31
0
0
ARC
5
441
100
AcDbEntity
8
0
100
AcDbCircle
10
-96.340863976079589
20
-6.4058140504981953
30
0
40
0.2000000000000185
210
0
220
-0
230
1
100
AcDbArc
50
2.7334093637975255e-05
51
90.000002003433934
0
LINE
5
442
100
AcDbEntity
8
0
100
AcDbLine
10
-109.94286470278405
20
-6.2058145261196707
30
0
11
-96.340863983072893
21
-6.2058140504981729
31
0
0
LINE
5
443
100
AcDbEntity
8
0
100
AcDbLine
10
49.13748383995614
20
-1.968795229509217
30
0
11
62.606980178428699
21
-3.860338868308153
31
0
0
ARC
5
444
100
AcDbEntity
8
0
100
AcDbCircle
10
62.579166763668397
20
-4.0583954611281126
30
0
40
0.20000000000016574
210
-0
220
0
230
1
100
AcDbArc
50
-7.9938654356879546
51
82.006134564170168
0
LINE
5
445
100
AcDbEntity
8
0
100
AcDbLine
10
62.777223356488392
20
-4.0862088758879178
30
0
11
60.88524438870266
21
-17.558805149288546
31
0
0
ARC
5
446
100
AcDbEntity
8
0
100
AcDbCircle
10
60.687187795882949
20
-17.530991734528563
30
0
40
0.19999999999992271
210
0
220
0
230
1
100
AcDbArc
50
262.00613456424048
51
352.00613456424986
0
LINE
5
447
100
AcDbEntity
8
0
100
AcDbLine
10
60.65937438112293
20
-17.729048327348281
30
0
11
47.189878042650264
21
-15.837504688549684
31
0
0
ARC
5
448
100
AcDbEntity
8
0
100
AcDbCircle
10
47.217691457410318
20
-15.639448095729866
30
0
40
0.20000000000001575
210
0
220
0
230
1
100
AcDbArc
50
172.00613456425205
51
262.006134564234
0
LINE
5
449
100
AcDbEntity
8
0
100
AcDbLine
10
47.0196348645905
20
-15.611634680969875
30
0
11
48.911613832376375
21
-2.1390384075690161
31
0
0
ARC
5
450
100
AcDbEntity
8
0
100
AcDbCircle
10
49.109670425196192
20
-2.1668518223290345
30
0
40
0.20000000000000959
210
0
220
-0
230
1
100
AcDbArc
50
82.006134564264627
51
172.0061345642446
0
ARC
5
451
100
AcDbEntity
8
0
100
AcDbCircle
10
-14.077583822821289
20
23.332214844711842
30
0
40
0.19999999999993368
210
0
220
-0
230
1
100
AcDbArc
50
8.0061345642309423
51
98.006134564278312
0
LINE
5
452
100
AcDbEntity
8
0
100
AcDbLine
10
-27.57453062889244
20
21.635837568368071
30
0
11
-14.105439648126321
21
23.530265477118174
31
0
0
ARC
5
453
100
AcDbEntity
8
0
100
AcDbCircle
10
-27.546674803587479
20
21.437786935961643
30
0
40
0.20000000000001639
210
0
220
0
230
1
100
AcDbArc
50
98.006134564254324
51
188.0061345642431
0
LINE
5
454
100
AcDbEntity
8
0
100
AcDbLine
10
-25.849861534457119
20
7.9377402882531545
30
0
11
-27.744725435993907
21
21.409931110656721
31
0
0
ARC
5
455
100
AcDbEntity
8
0
100
AcDbCircle
10
-25.651810902050656
20
7.965596113558151
30
0
40
0.20000000000005652
210
0
220
0
230
1
100
AcDbArc
50
188.00613456426296
51
278.00613456424242
0
LINE
5
456
100
AcDbEntity
8
0
100
AcDbLine
10
-12.154864095979576
20
9.6619733899021565
30
0
11
-25.62395507674573
21
7.7675454811516698
31
0
0
ARC
5
457
100
AcDbEntity
8
0
100
AcDbCircle
10
-12.182719921284466
20
9.8600240223085489
30
0
40
0.19999999999997131
210
-0
220
0
230
1
100
AcDbArc
50
-81.99386543576442
51
8.0061345642530455
0
LINE
5
458
100
AcDbEntity
8
0
100
AcDbLine
10
-13.879533190414932
20
23.360070670016711
30
0
11
-11.984669288878074
21
9.887879847613501
31
0
0
ARC
5
459
100
AcDbEntity
8
0
100
AcDbCircle
10
98.559993357285975
20
-25.494456561979906
30
0
40
0.20000000000012896
210
0
220
0
230
1
100
AcDbArc
50
90.000000000020364
51
180
0
LINE
5
460
100
AcDbEntity
8
0
100
AcDbLine
10
98.359993357286157
20
-39.096271475730767
30
0
11
98.359993357285873
21
-25.494456561979739
31
0
0
ARC
5
461
100
AcDbEntity
8
0
100
AcDbCircle
10
98.559993357286118
20
-39.096271475730802
30
0
40
0.19999999999996021
210
0
220
0
230
1
100
AcDbArc
50
180
51
269.99999999997965
0
LINE
5
462
100
AcDbEntity
8
0
100
AcDbLine
10
112.1602784503758
20
-39.29627147573062
30
0
11
98.559993357286046
21
-39.296271475730762
31
0
0
ARC
5
463
100
AcDbEntity
8
0
100
AcDbCircle
10
112.1602784503758
20
-39.096271475730518
30
0
40
0.20000000000010232
210
-0
220
0
230
1
100
AcDbArc
50
270
51
360
0
LINE
5
464
100
AcDbEntity
8
0
100
AcDbLine
10
112.3602784503764
20
-25.494456561980048
30
0
11
112.3602784503759
21
-39.096271475730589
31
0
0
ARC
5
465
100
AcDbEntity
8
0
100
AcDbCircle
10
112.16027845037644
20
-25.494456561979977
30
0
40
0.19999999999996021
210
-0
220
0
230
1
100
AcDbArc
50
0
51
90.000000000020364
0
LINE
5
466
100
AcDbEntity
8
0
100
AcDbLine
10
98.559993357285904
20
-25.294456561979779
30
0
11
112.16027845037637
21
-25.294456561980063
31
0
0
ARC
5
467
100
AcDbEntity
8
0
100
AcDbCircle
10
112.73077845037577
20
-0.61460401885489624
30
0
40
0.20000000000012008
210
-0
220
0
230
1
100
AcDbArc
50
270.00000000002035
51
360
0
LINE
5
468
100
AcDbEntity
8
0
100
AcDbLine
10
112.93077845037644
20
12.987210894895522
30
0
11
112.93077845037587
21
-0.61460401885503835
31
0
0
ARC
5
469
100
AcDbEntity
8
0
100
AcDbCircle
10
112.73077845037641
20
12.987210894895469
30
0
40
0.20000000000003126
210
0
220
-0
230
1
100
AcDbArc
50
0
51
90
0
LINE
5
470
100
AcDbEntity
8
0
100
AcDbLine
10
99.130493357285943
20
13.187210894895847
30
0
11
112.73077845037641
21
13.1872108948955
31
0
0
ARC
5
471
100
AcDbEntity
8
0
100
AcDbCircle
10
99.130493357286014
20
12.987210894895727
30
0
40
0.20000000000012008
210
0
220
0
230
1
100
AcDbArc
50
90.000000000020364
51
180
0
LINE
5
472
100
AcDbEntity
8
0
100
AcDbLine
10
98.930493357286124
20
-0.61460401885515381
30
0
11
98.930493357285911
21
12.987210894895869
31
0
0
ARC
5
473
100
AcDbEntity
8
0
100
AcDbCircle
10
99.130493357286085
20
-0.61460401885518046
30
0
40
0.19999999999996021
210
0
220
0
230
1
100
AcDbArc
50
180
51
269.99999999999591
0
LINE
5
474
100
AcDbEntity
8
0
100
AcDbLine
10
112.73077845037584
20
-0.81460401885501632
30
0
11
99.130493357286085
21
-0.81460401885514067
31
0
0
LINE
5
475
100
AcDbEntity
8
0
100
AcDbLine
10
-132.13586409616903
20
32.273185981144884
30
0
11
-118.53586409616902
21
32.273185981144834
31
0
0
ARC
5
476
100
AcDbEntity
8
0
100
AcDbCircle
10
-118.53586409616902
20
32.073185981144817
30
0
40
0.20000000000003126
210
0
220
-0
230
1
100
AcDbArc
50
0
51
90
0
LINE
5
477
100
AcDbEntity
8
0
100
AcDbLine
10
-118.33586409616899
20
32.073185981144839
30
0
11
-118.33586409616899
21
18.473785981144829
31
0
0
ARC
5
478
100
AcDbEntity
8
0
100
AcDbCircle
10
-118.53586409616902
20
18.473785981144847
30
0
40
0.20000000000002682
210
0
220
0
230
1
100
AcDbArc
50
269.99999999999591
51
360
0
LINE
5
479
100
AcDbEntity
8
0
100
AcDbLine
10
-118.53586409616904
20
18.273785981144819
30
0
11
-132.13586409616903
21
18.273785981144872
31
0
0
ARC
5
480
100
AcDbEntity
8
0
100
AcDbCircle
10
-132.13586409616897
20
18.473785981144886
30
0
40
0.2000000000000135
210
0
220
0
230
1
100
AcDbArc
50
180
51
269.99999999998369
0
LINE
5
481
100
AcDbEntity
8
0
100
AcDbLine
10
-132.33586409616899
20
18.473785981144871
30
0
11
-132.33586409616896
21
32.073185981144874
31
0
0
ARC
5
482
100
AcDbEntity
8
0
100
AcDbCircle
10
-132.13586409616903
20
32.073185981144903
30
0
40
0.19999999999998241
210
0
220
0
230
1
100
AcDbArc
50
90
51
180
0
LINE
5
483
100
AcDbEntity
8
0
100
AcDbLine
10
63.599484961538337
20
20.331985560573564
30
0
11
50.129988623065636
21
22.223529199372187
31
0
0
ARC
5
484
100
AcDbEntity
8
0
100
AcDbCircle
10
50.157802037825618
20
22.42158579219204
30
0
40
0.20000000000004847
210
0
220
0
230
1
100
AcDbArc
50
172.00613456425799
51
262.00613456425594
0
LINE
5
485
100
AcDbEntity
8
0
100
AcDbLine
10
49.959745445005765
20
22.449399206952016
30
0
11
51.851724412791782
21
35.921995480352905
31
0
0
ARC
5
486
100
AcDbEntity
8
0
100
AcDbCircle
10
52.049781005611493
20
35.894182065592915
30
0
40
0.19999999999992271
210
0
220
-0
230
1
100
AcDbArc
50
82.006134564240782
51
172.00613456424858
0
LINE
5
487
100
AcDbEntity
8
0
100
AcDbLine
10
52.077594420371511
20
36.09223865841264
30
0
11
65.547090758843964
21
34.200695019613761
31
0
0
ARC
5
488
100
AcDbEntity
8
0
100
AcDbCircle
10
65.519277344083804
20
34.002638426793801
30
0
40
0.20000000000017806
210
-0
220
0
230
1
100
AcDbArc
50
-7.9938654357121264
51
82.006134564209802
0
LINE
5
489
100
AcDbEntity
8
0
100
AcDbLine
10
65.717333936903799
20
33.974825012033911
30
0
11
63.825354969118138
21
20.502228738633342
31
0
0
ARC
5
490
100
AcDbEntity
8
0
100
AcDbCircle
10
63.627298376298356
20
20.530042153393321
30
0
40
0.19999999999996229
210
0
220
0
230
1
100
AcDbArc
50
262.00613456424207
51
352.00613456425589
0
LINE
5
491
100
AcDbEntity
8
0
100
AcDbLine
10
-108.32386409616905
20
32.273185981144877
30
0
11
-94.723864096169095
21
32.273185981144827
31
0
0
ARC
5
492
100
AcDbEntity
8
0
100
AcDbCircle
10
-94.723864096169137
20
32.073185981144796
30
0
40
0.20000000000003126
210
0
220
-0
230
1
100
AcDbArc
50
0
51
89.999999999987793
0
LINE
5
493
100
AcDbEntity
8
0
100
AcDbLine
10
-94.523864096169092
20
32.073185981144839
30
0
11
-94.523864096169092
21
18.473785981144829
31
0
0
ARC
5
494
100
AcDbEntity
8
0
100
AcDbCircle
10
-94.723864096169095
20
18.4737859811448
30
0
40
0.19999999999998685
210
-0
220
0
230
1
100
AcDbArc
50
-90
51
0
0
LINE
5
495
100
AcDbEntity
8
0
100
AcDbLine
10
-94.723864096169095
20
18.273785981144815
30
0
11
-108.32386409616909
21
18.273785981144869
31
0
0
ARC
5
496
100
AcDbEntity
8
0
100
AcDbCircle
10
-108.32386409616909
20
18.473785981144847
30
0
40
0.19999999999996021
210
0
220
0
230
1
100
AcDbArc
50
180
51
270
0
LINE
5
497
100
AcDbEntity
8
0
100
AcDbLine
10
-108.52386409616905
20
18.473785981144864
30
0
11
-108.52386409616905
21
32.073185981144874
31
0
0
ARC
5
498
100
AcDbEntity
8
0
100
AcDbCircle
10
-108.32386409616913
20
32.073185981144931
30
0
40
0.19999999999994689
210
0
220
-0
230
1
100
AcDbArc
50
89.999999999975572
51
180
0
LINE
5
499
100
AcDbEntity
8
0
100
AcDbLine
10
-20.807025269835826
20
-30.028426426452349
30
0
11
-34.666426770557166
21
-31.977751517435642
31
0
0
ARC
5
500
100
AcDbEntity
8
0
100
AcDbCircle
10
-34.475107218817804
20
-31.919469194874964
30
0
40
0.20000000000204343
210
0
220
0
230
1
100
AcDbArc
50
188.00613456429181
51
196.94248613292811
0
LINE
5
501
100
AcDbEntity
8
0
100
AcDbLine
10
-34.673157851226222
20
-31.947325020180337
30
0
11
-36.591550532975745
21
-18.307848190276417
31
0
0
ARC
5
502
100
AcDbEntity
8
0
100
AcDbCircle
10
-36.393499900569211
20
-18.279992364971545
30
0
40
0.20000000000010051
210
0
220
0
230
1
100
AcDbArc
50
98.006134564261146
51
188.00613456422406
0
LINE
5
503
100
AcDbEntity
8
0
100
AcDbLine
10
-36.421355725874207
20
-18.081941732565035
30
0
11
-22.952264745107911
21
-16.187513823814879
31
0
0
ARC
5
504
100
AcDbEntity
8
0
100
AcDbCircle
10
-22.924408919803021
20
-16.385564456221317
30
0
40
0.20000000000001267
210
0
220
-0
230
1
100
AcDbArc
50
8.0061345642472475
51
98.006134564233875
0
LINE
5
505
100
AcDbEntity
8
0
100
AcDbLine
10
-22.726358287396593
20
-16.357708630916381
30
0
11
-20.80876796867166
21
-29.991480783155147
31
0
0
ARC
5
506
100
AcDbEntity
8
0
100
AcDbCircle
10
-21.006818601076134
20
-30.019336608460094
30
0
40
0.19999999999807927
210
-0
220
0
230
1
100
AcDbArc
50
-2.6049383649704052
51
8.0061345643282671
0
LINE
5
507
100
AcDbEntity
8
0
100
AcDbLine
10
-44.714184271168307
20
5.2844729279592784
30
0
11
-46.609048172705059
21
18.756663750362847
31
0
0
ARC
5
508
100
AcDbEntity
8
0
100
AcDbCircle
10
-46.410997540298631
20
18.784519575667773
30
0
40
0.20000000000001639
210
0
220
0
230
1
100
AcDbArc
50
98.006134564254324
51
188.00613456424398
0
LINE
5
509
100
AcDbEntity
8
0
100
AcDbLine
10
-46.438853365603592
20
18.9825702080742
30
0
11
-32.969762384837438
21
20.876998116824332
31
0
0
ARC
5
510
100
AcDbEntity
8
0
100
AcDbCircle
10
-32.941906559532512
20
20.678947484417836
30
0
40
0.20000000000005652
210
0
220
-0
230
1
100
AcDbArc
50
8.0061345642629576
51
98.006134564240526
0
LINE
5
511
100
AcDbEntity
8
0
100
AcDbLine
10
-32.743855927126049
20
20.706803309722833
30
0
11
-30.848992025589226
21
7.2346124873196338
31
0
0
ARC
5
512
100
AcDbEntity
8
0
100
AcDbCircle
10
-31.047042657995583
20
7.2067566620146284
30
0
40
0.19999999999994109
210
-0
220
0
230
1
100
AcDbArc
50
-81.993865435752923
51
8.0061345642697646
0
LINE
5
513
100
AcDbEntity
8
0
100
AcDbLine
10
-31.019186832690657
20
7.0087060296082715
30
0
11
-44.488277813457024
21
5.114278120857767
31
0
0
ARC
5
514
100
AcDbEntity
8
0
100
AcDbCircle
10
-44.516133638761879
20
5.3123287532642038
30
0
40
0.20000000000001145
210
0
220
0
230
1
100
AcDbArc
50
188.00613456424423
51
278.00613456422371
0
ENDSEC
0
SECTION
2
OBJECTS
0
DICTIONARY
5
C
100
AcDbDictionary
3
ACAD_GROUP
350
D
3
ACAD_MLINESTYLE
350
17
0
DICTIONARY
5
D
100
AcDbDictionary
0
DICTIONARY
5
1A
330
C
100
AcDbDictionary
0
DICTIONARY
5
17
100
AcDbDictionary
0
ENDSEC
0
EOF
